<svg aria-hidden="true" style="position: absolute; width: 0; height: 0; overflow: hidden;" version="1.1" xmlns="http://www.w3.org/2000/svg" xmlns:xlink="http://www.w3.org/1999/xlink">
<defs>
<symbol id="icon-account" viewBox="0 0 32 32">
<path d="M15.487 0c-4.28 0-7.725 3.463-7.725 7.725 0 4.172 3.289 7.57 7.434 7.709 0.046 0.002 0.092 0 0.139-0.004 0.1-0.009 0.207-0.008 0.279-0.001 0.049 0.005 0.099 0.007 0.149 0.005 4.146-0.139 7.432-3.537 7.449-7.704v-0.005c0-4.263-3.462-7.725-7.725-7.725zM9.995 7.725c0-3.032 2.449-5.492 5.492-5.492 3.029 0 5.491 2.461 5.492 5.49-0.014 2.954-2.321 5.347-5.229 5.478-0.176-0.013-0.362-0.012-0.539 0-2.911-0.129-5.217-2.524-5.217-5.476z"></path>
<path d="M23.801 18.882c-2.262-1.511-5.188-2.231-8.058-2.231s-5.802 0.72-8.077 2.229l-0.004 0.003c-2.032 1.36-3.197 3.261-3.197 5.302s1.165 3.938 3.198 5.291c2.268 1.517 5.198 2.242 8.069 2.242s5.801-0.725 8.070-2.242c2.032-1.36 3.197-3.261 3.197-5.302s-1.165-3.938-3.198-5.291zM6.698 24.184c0-1.125 0.636-2.394 2.204-3.445 1.833-1.214 4.31-1.855 6.842-1.855 2.533 0 5.002 0.642 6.818 1.855l0.002 0.001c1.568 1.043 2.203 2.309 2.203 3.433s-0.636 2.396-2.206 3.446c-1.824 1.221-4.297 1.865-6.828 1.865s-5.004-0.645-6.829-1.865l-0.002-0.002c-1.568-1.043-2.203-2.309-2.203-3.433z"></path>
</symbol>
<symbol id="icon-ahead" viewBox="0 0 32 32">
<path d="M21.121 4.272c-0.507-0.507-1.328-0.507-1.835 0s-0.507 1.328 0 1.835l8.285 8.285h-26.274c-0.716 0-1.297 0.581-1.297 1.297s0.581 1.297 1.297 1.297h26.273l-8.285 8.285c-0.507 0.507-0.507 1.328 0 1.835s1.328 0.507 1.835 0l10.499-10.499c0.243-0.243 0.38-0.573 0.38-0.917s-0.137-0.674-0.38-0.917l-10.499-10.499z"></path>
</symbol>
<symbol id="icon-back" viewBox="0 0 32 32">
<path d="M12.714 6.107c0.507-0.507 0.507-1.328 0-1.835s-1.328-0.507-1.835 0l-10.499 10.499c-0.243 0.243-0.38 0.573-0.38 0.917s0.137 0.674 0.38 0.917l10.499 10.499c0.507 0.507 1.328 0.507 1.835 0s0.507-1.328 0-1.835l-8.285-8.285h26.273c0.716 0 1.297-0.581 1.297-1.297s-0.581-1.297-1.297-1.297h-26.274l8.285-8.285z"></path>
</symbol>
<symbol id="icon-basket" viewBox="0 0 32 32">
<path d="M19.715 15.988c0-0.822 0.666-1.488 1.488-1.488h0.013c0.822 0 1.488 0.666 1.488 1.488s-0.666 1.488-1.488 1.488h-0.013c-0.822 0-1.488-0.666-1.488-1.488z"></path>
<path d="M10.784 14.499c-0.822 0-1.488 0.666-1.488 1.488s0.666 1.488 1.488 1.488h0.013c0.822 0 1.488-0.666 1.488-1.488s-0.666-1.488-1.488-1.488h-0.013z"></path>
<path d="M8.187 9.010c-2.314 0.246-3.971 0.987-5.025 2.24-1.307 1.554-1.43 3.597-1.219 5.5l1.117 8.936c0.165 1.527 0.55 3.201 1.913 4.446 1.356 1.239 3.457 1.855 6.563 1.855h8.93c3.106 0 5.207-0.616 6.563-1.855 1.363-1.245 1.749-2.918 1.913-4.446l1.117-8.936c0.211-1.903 0.088-3.946-1.219-5.5-1.054-1.253-2.711-1.994-5.026-2.24v-1.194c0-4.564-3.921-8.229-8.575-7.779-3.986 0.373-7.053 4.204-7.053 8.062v0.911zM15.454 2.26c3.324-0.322 6.129 2.292 6.129 5.557v1.101h-11.163v-0.819c0-2.839 2.319-5.586 5.030-5.839l0.004-0zM5.276 25.42l-1.115-8.922c-0.19-1.724 0.008-2.976 0.709-3.81 0.691-0.822 2.131-1.537 5.177-1.537h11.907c3.047 0 4.486 0.715 5.177 1.537 0.701 0.834 0.899 2.085 0.709 3.809l-1.115 8.922-0.002 0.020c-0.149 1.387-0.457 2.366-1.2 3.046-0.754 0.689-2.18 1.271-5.057 1.271h-8.93c-2.877 0-4.304-0.582-5.057-1.271-0.744-0.679-1.052-1.659-1.2-3.046l-0.002-0.020z"></path>
</symbol>
<symbol id="icon-burger" viewBox="0 0 32 32">
<path d="M0 7.795c0-0.68 0.551-1.231 1.231-1.231h29.538c0.68 0 1.231 0.551 1.231 1.231s-0.551 1.231-1.231 1.231h-29.538c-0.68 0-1.231-0.551-1.231-1.231z"></path>
<path d="M0 16c0-0.68 0.551-1.231 1.231-1.231h29.538c0.68 0 1.231 0.551 1.231 1.231s-0.551 1.231-1.231 1.231h-29.538c-0.68 0-1.231-0.551-1.231-1.231z"></path>
<path d="M1.231 22.974c-0.68 0-1.231 0.551-1.231 1.231s0.551 1.231 1.231 1.231h29.538c0.68 0 1.231-0.551 1.231-1.231s-0.551-1.231-1.231-1.231h-29.538z"></path>
<path fill="none" stroke="#333" style="stroke: var(--color1, #333)" stroke-linejoin="miter" stroke-linecap="butt" stroke-miterlimit="4" stroke-width="0.8205" d="M0 7.795c0-0.68 0.551-1.231 1.231-1.231h29.538c0.68 0 1.231 0.551 1.231 1.231s-0.551 1.231-1.231 1.231h-29.538c-0.68 0-1.231-0.551-1.231-1.231z"></path>
<path fill="none" stroke="#333" style="stroke: var(--color1, #333)" stroke-linejoin="miter" stroke-linecap="butt" stroke-miterlimit="4" stroke-width="0.8205" d="M0 16c0-0.68 0.551-1.231 1.231-1.231h29.538c0.68 0 1.231 0.551 1.231 1.231s-0.551 1.231-1.231 1.231h-29.538c-0.68 0-1.231-0.551-1.231-1.231z"></path>
<path fill="none" stroke="#333" style="stroke: var(--color1, #333)" stroke-linejoin="miter" stroke-linecap="butt" stroke-miterlimit="4" stroke-width="0.8205" d="M1.231 22.974c-0.68 0-1.231 0.551-1.231 1.231s0.551 1.231 1.231 1.231h29.538c0.68 0 1.231-0.551 1.231-1.231s-0.551-1.231-1.231-1.231h-29.538z"></path>
</symbol>
<symbol id="icon-close" viewBox="0 0 32 32">
<path d="M31.296 4.103c0.939-0.939 0.939-2.46 0-3.399s-2.46-0.939-3.399 0l-11.897 11.897-11.897-11.897c-0.939-0.939-2.46-0.939-3.399 0s-0.939 2.46 0 3.399l11.897 11.897-11.897 11.897c-0.939 0.939-0.939 2.46 0 3.399s2.46 0.939 3.399 0l11.897-11.897 11.897 11.897c0.939 0.939 2.46 0.939 3.399 0s0.939-2.46 0-3.399l-11.897-11.897 11.897-11.897z"></path>
</symbol>
<symbol id="icon-comment" viewBox="0 0 32 32">
<path d="M26.352 23.728l0.624 5.056c0.16 1.328-1.264 2.256-2.4 1.568l-5.536-3.296c-0.384-0.224-0.48-0.704-0.272-1.088 0.8-1.472 1.232-3.136 1.232-4.8 0-5.856-5.024-10.624-11.2-10.624-1.264 0-2.496 0.192-3.648 0.576-0.592 0.192-1.168-0.352-1.024-0.96 1.456-5.824 7.056-10.16 13.744-10.16 7.808 0 14.128 5.904 14.128 13.184 0 4.32-2.224 8.144-5.648 10.544z"></path>
<path d="M17.6 21.168c0 1.904-0.704 3.664-1.888 5.056-1.584 1.92-4.096 3.152-6.912 3.152l-4.176 2.48c-0.704 0.432-1.6-0.16-1.504-0.976l0.4-3.152c-2.144-1.488-3.52-3.872-3.52-6.56 0-2.816 1.504-5.296 3.808-6.768 1.424-0.928 3.136-1.456 4.992-1.456 4.864 0 8.8 3.68 8.8 8.224z"></path>
</symbol>
<symbol id="icon-delivery" viewBox="0 0 32 32">
<path d="M7.273 27.636c-1.212 0-2.242-0.424-3.091-1.273s-1.273-1.879-1.273-3.091c-0.8 0-1.485-0.285-2.055-0.855s-0.855-1.255-0.854-2.054v-13.091c0-0.8 0.285-1.485 0.855-2.055s1.255-0.855 2.054-0.854h17.455c0.8 0 1.485 0.285 2.055 0.855s0.855 1.255 0.854 2.054v2.909h3.636c0.242 0 0.461 0.049 0.655 0.145s0.364 0.242 0.509 0.436l3.636 4.836c0.097 0.121 0.17 0.255 0.218 0.4s0.073 0.303 0.073 0.473v5.345c0 0.412-0.14 0.758-0.419 1.037s-0.625 0.418-1.036 0.417h-1.455c0 1.212-0.424 2.242-1.273 3.091s-1.879 1.273-3.091 1.273c-1.212 0-2.242-0.424-3.091-1.273s-1.273-1.879-1.273-3.091h-8.727c0 1.212-0.424 2.242-1.273 3.091s-1.879 1.273-3.091 1.273zM7.273 24.727c0.412 0 0.758-0.14 1.037-0.419s0.418-0.625 0.417-1.036c0-0.412-0.14-0.758-0.419-1.037s-0.625-0.418-1.036-0.417c-0.412 0-0.758 0.14-1.037 0.419s-0.418 0.625-0.417 1.036c0 0.412 0.14 0.758 0.419 1.037s0.625 0.418 1.036 0.417zM24.727 24.727c0.412 0 0.758-0.14 1.037-0.419s0.418-0.625 0.417-1.036c0-0.412-0.14-0.758-0.419-1.037s-0.625-0.418-1.036-0.417c-0.412 0-0.758 0.14-1.037 0.419s-0.418 0.625-0.417 1.036c0 0.412 0.14 0.758 0.419 1.037s0.625 0.418 1.036 0.417zM23.273 17.455h6.182l-3.273-4.364h-2.909v4.364z"></path>
</symbol>
<symbol id="icon-discount" viewBox="0 0 32 32">
<path d="M3.2 3.2c-0.849 0-1.663 0.337-2.263 0.937s-0.937 1.414-0.937 2.263v6.4c0.849 0 1.663 0.337 2.263 0.937s0.937 1.414 0.937 2.263-0.337 1.663-0.937 2.263c-0.6 0.6-1.414 0.937-2.263 0.937v6.4c0 0.849 0.337 1.663 0.937 2.263s1.414 0.937 2.263 0.937h25.6c0.849 0 1.663-0.337 2.263-0.937s0.937-1.414 0.937-2.263v-6.4c-0.849 0-1.663-0.337-2.263-0.937s-0.937-1.414-0.937-2.263 0.337-1.663 0.937-2.263c0.6-0.6 1.414-0.937 2.263-0.937v-6.4c0-0.849-0.337-1.663-0.937-2.263s-1.414-0.937-2.263-0.937h-25.6zM21.6 8l2.4 2.4-13.6 13.6-2.4-2.4 13.6-13.6zM10.896 8.064c1.568 0 2.832 1.264 2.832 2.832 0 0.751-0.298 1.471-0.829 2.003s-1.251 0.829-2.003 0.829c-1.568 0-2.832-1.264-2.832-2.832 0-0.751 0.298-1.471 0.829-2.003s1.251-0.829 2.003-0.829zM21.104 18.272c1.568 0 2.832 1.264 2.832 2.832 0 0.751-0.298 1.471-0.829 2.003s-1.251 0.829-2.003 0.829c-1.568 0-2.832-1.264-2.832-2.832 0-0.751 0.298-1.471 0.829-2.003s1.251-0.829 2.003-0.829z"></path>
</symbol>
<symbol id="icon-leave" viewBox="0 0 32 32">
<path d="M15.086 31.13c-1.006 0-2.019-0.115-3.041-0.344s-2.065-0.556-3.13-0.982c0.366-3.688 1.432-7.131 3.2-10.331s4.038-6.019 6.811-8.457c-3.352 1.707-6.256 3.962-8.71 6.766s-4.168 6.004-5.142 9.6c-0.122-0.091-0.237-0.19-0.344-0.296l-0.342-0.344c-1.432-1.432-2.522-3.032-3.269-4.8s-1.12-3.611-1.119-5.531c0-2.072 0.411-4.053 1.234-5.943s1.966-3.566 3.429-5.029c2.469-2.469 5.669-4.076 9.6-4.822s9.448-0.815 16.549-0.207c0.549 7.284 0.457 12.838-0.274 16.664s-2.316 6.957-4.754 9.393c-1.493 1.493-3.162 2.644-5.007 3.452s-3.741 1.212-5.691 1.21z"></path>
</symbol>
<symbol id="icon-search" viewBox="0 0 32 32">
<path d="M13.023 0c-7.193 0-13.023 5.831-13.023 13.023s5.831 13.023 13.023 13.023c3.194 0 6.12-1.15 8.386-3.059l8.685 8.685c0.436 0.436 1.143 0.436 1.579 0s0.436-1.143 0-1.579l-8.685-8.685c1.909-2.266 3.059-5.191 3.059-8.386 0-7.193-5.831-13.023-13.023-13.023zM2.233 13.023c0-5.96 4.831-10.791 10.791-10.791s10.791 4.831 10.791 10.791c0 5.96-4.831 10.791-10.791 10.791s-10.791-4.831-10.791-10.791z"></path>
</symbol>
<symbol id="icon-smile" viewBox="0 0 32 32">
<path d="M16 32c8.837 0 16-7.163 16-16s-7.163-16-16-16c-8.837 0-16 7.163-16 16s7.163 16 16 16zM10.235 21.685c0.094-0.127 0.212-0.234 0.347-0.315s0.285-0.135 0.441-0.158c0.156-0.023 0.315-0.015 0.468 0.023s0.297 0.107 0.423 0.201c1.165 0.864 2.571 1.363 4.085 1.363s2.92-0.501 4.085-1.363c0.126-0.098 0.271-0.17 0.425-0.212s0.316-0.052 0.474-0.030c0.158 0.022 0.311 0.075 0.448 0.156s0.258 0.189 0.353 0.318c0.095 0.128 0.164 0.274 0.202 0.43s0.045 0.317 0.020 0.474c-0.025 0.158-0.082 0.309-0.166 0.445s-0.195 0.253-0.326 0.346c-1.592 1.191-3.527 1.835-5.515 1.837-1.988-0.002-3.923-0.646-5.515-1.837-0.256-0.19-0.426-0.473-0.472-0.788s0.033-0.635 0.223-0.891zM22.4 13.6c0 1.325-0.717 2.4-1.6 2.4s-1.6-1.075-1.6-2.4c0-1.325 0.717-2.4 1.6-2.4s1.6 1.075 1.6 2.4zM11.2 16c0.883 0 1.6-1.075 1.6-2.4s-0.717-2.4-1.6-2.4c-0.883 0-1.6 1.075-1.6 2.4s0.717 2.4 1.6 2.4z"></path>
</symbol>
<symbol id="icon-support" viewBox="0 0 32 32">
<path d="M29.091 10.18c0.772 0 1.512 0.307 2.057 0.852s0.852 1.286 0.852 2.057v5.818c0 0.771-0.306 1.511-0.852 2.057s-1.285 0.852-2.057 0.852h-1.545c-0.355 2.812-1.723 5.398-3.849 7.273s-4.863 2.909-7.697 2.909v-2.909c2.315 0 4.534-0.919 6.171-2.556s2.556-3.857 2.556-6.171v-8.727c0-2.315-0.919-4.534-2.556-6.171s-3.857-2.556-6.171-2.556-4.534 0.919-6.171 2.556c-1.637 1.637-2.556 3.857-2.556 6.171v10.182h-4.364c-0.772 0-1.511-0.307-2.057-0.852s-0.852-1.286-0.852-2.057v-5.818c0-0.771 0.306-1.511 0.852-2.057s1.286-0.852 2.057-0.852h1.545c0.355-2.812 1.724-5.397 3.85-7.272s4.863-2.909 7.697-2.909 5.571 1.034 7.697 2.909c2.126 1.874 3.495 4.46 3.85 7.272h1.545zM9.833 21.504l1.542-2.467c1.386 0.868 2.99 1.328 4.625 1.325 1.636 0.003 3.239-0.457 4.625-1.325l1.542 2.467c-1.848 1.158-3.986 1.771-6.167 1.767-2.181 0.003-4.319-0.609-6.167-1.767z"></path>
</symbol>
</defs>
</svg>
