<svg aria-hidden="true" style="position: absolute; width: 0; height: 0; overflow: hidden;" version="1.1" xmlns="http://www.w3.org/2000/svg" xmlns:xlink="http://www.w3.org/1999/xlink">
<defs>
<symbol id="icon-account" viewBox="0 0 32 32">
<path d="M15.487 0c-4.28 0-7.725 3.463-7.725 7.725 0 4.172 3.289 7.57 7.434 7.709 0.046 0.002 0.092 0 0.139-0.004 0.1-0.009 0.207-0.008 0.279-0.001 0.049 0.005 0.099 0.007 0.149 0.005 4.146-0.139 7.432-3.537 7.449-7.704v-0.005c0-4.263-3.462-7.725-7.725-7.725zM9.995 7.725c0-3.032 2.449-5.492 5.492-5.492 3.029 0 5.491 2.461 5.492 5.49-0.014 2.954-2.321 5.347-5.229 5.478-0.176-0.013-0.362-0.012-0.539 0-2.911-0.129-5.217-2.524-5.217-5.476z"></path>
<path d="M23.801 18.882c-2.262-1.511-5.188-2.231-8.058-2.231s-5.802 0.72-8.077 2.229l-0.004 0.003c-2.032 1.36-3.197 3.261-3.197 5.302s1.165 3.938 3.198 5.291c2.268 1.517 5.198 2.242 8.069 2.242s5.801-0.725 8.070-2.242c2.032-1.36 3.197-3.261 3.197-5.302s-1.165-3.938-3.198-5.291zM6.698 24.184c0-1.125 0.636-2.394 2.204-3.445 1.833-1.214 4.31-1.855 6.842-1.855 2.533 0 5.002 0.642 6.818 1.855l0.002 0.001c1.568 1.043 2.203 2.309 2.203 3.433s-0.636 2.396-2.206 3.446c-1.824 1.221-4.297 1.865-6.828 1.865s-5.004-0.645-6.829-1.865l-0.002-0.002c-1.568-1.043-2.203-2.309-2.203-3.433z"></path>
</symbol>
<symbol id="icon-ahead" viewBox="0 0 32 32">
<path d="M21.121 4.272c-0.507-0.507-1.328-0.507-1.835 0s-0.507 1.328 0 1.835l8.285 8.285h-26.274c-0.716 0-1.297 0.581-1.297 1.297s0.581 1.297 1.297 1.297h26.273l-8.285 8.285c-0.507 0.507-0.507 1.328 0 1.835s1.328 0.507 1.835 0l10.499-10.499c0.243-0.243 0.38-0.573 0.38-0.917s-0.137-0.674-0.38-0.917l-10.499-10.499z"></path>
</symbol>
<symbol id="icon-back" viewBox="0 0 32 32">
<path d="M12.714 6.107c0.507-0.507 0.507-1.328 0-1.835s-1.328-0.507-1.835 0l-10.499 10.499c-0.243 0.243-0.38 0.573-0.38 0.917s0.137 0.674 0.38 0.917l10.499 10.499c0.507 0.507 1.328 0.507 1.835 0s0.507-1.328 0-1.835l-8.285-8.285h26.273c0.716 0 1.297-0.581 1.297-1.297s-0.581-1.297-1.297-1.297h-26.274l8.285-8.285z"></path>
</symbol>
<symbol id="icon-basket" viewBox="0 0 32 32">
<path d="M19.715 15.988c0-0.822 0.666-1.488 1.488-1.488h0.013c0.822 0 1.488 0.666 1.488 1.488s-0.666 1.488-1.488 1.488h-0.013c-0.822 0-1.488-0.666-1.488-1.488z"></path>
<path d="M10.784 14.499c-0.822 0-1.488 0.666-1.488 1.488s0.666 1.488 1.488 1.488h0.013c0.822 0 1.488-0.666 1.488-1.488s-0.666-1.488-1.488-1.488h-0.013z"></path>
<path d="M8.187 9.010c-2.314 0.246-3.971 0.987-5.025 2.24-1.307 1.554-1.43 3.597-1.219 5.5l1.117 8.936c0.165 1.527 0.55 3.201 1.913 4.446 1.356 1.239 3.457 1.855 6.563 1.855h8.93c3.106 0 5.207-0.616 6.563-1.855 1.363-1.245 1.749-2.918 1.913-4.446l1.117-8.936c0.211-1.903 0.088-3.946-1.219-5.5-1.054-1.253-2.711-1.994-5.026-2.24v-1.194c0-4.564-3.921-8.229-8.575-7.779-3.986 0.373-7.053 4.204-7.053 8.062v0.911zM15.454 2.26c3.324-0.322 6.129 2.292 6.129 5.557v1.101h-11.163v-0.819c0-2.839 2.319-5.586 5.030-5.839l0.004-0zM5.276 25.42l-1.115-8.922c-0.19-1.724 0.008-2.976 0.709-3.81 0.691-0.822 2.131-1.537 5.177-1.537h11.907c3.047 0 4.486 0.715 5.177 1.537 0.701 0.834 0.899 2.085 0.709 3.809l-1.115 8.922-0.002 0.020c-0.149 1.387-0.457 2.366-1.2 3.046-0.754 0.689-2.18 1.271-5.057 1.271h-8.93c-2.877 0-4.304-0.582-5.057-1.271-0.744-0.679-1.052-1.659-1.2-3.046l-0.002-0.020z"></path>
</symbol>
<symbol id="icon-burger" viewBox="0 0 32 32">
<path d="M0 7.795c0-0.68 0.551-1.231 1.231-1.231h29.538c0.68 0 1.231 0.551 1.231 1.231s-0.551 1.231-1.231 1.231h-29.538c-0.68 0-1.231-0.551-1.231-1.231z"></path>
<path d="M0 16c0-0.68 0.551-1.231 1.231-1.231h29.538c0.68 0 1.231 0.551 1.231 1.231s-0.551 1.231-1.231 1.231h-29.538c-0.68 0-1.231-0.551-1.231-1.231z"></path>
<path d="M1.231 22.974c-0.68 0-1.231 0.551-1.231 1.231s0.551 1.231 1.231 1.231h29.538c0.68 0 1.231-0.551 1.231-1.231s-0.551-1.231-1.231-1.231h-29.538z"></path>
<path fill="none" stroke="#333" style="stroke: var(--color1, #333)" stroke-linejoin="miter" stroke-linecap="butt" stroke-miterlimit="4" stroke-width="0.8205" d="M0 7.795c0-0.68 0.551-1.231 1.231-1.231h29.538c0.68 0 1.231 0.551 1.231 1.231s-0.551 1.231-1.231 1.231h-29.538c-0.68 0-1.231-0.551-1.231-1.231z"></path>
<path fill="none" stroke="#333" style="stroke: var(--color1, #333)" stroke-linejoin="miter" stroke-linecap="butt" stroke-miterlimit="4" stroke-width="0.8205" d="M0 16c0-0.68 0.551-1.231 1.231-1.231h29.538c0.68 0 1.231 0.551 1.231 1.231s-0.551 1.231-1.231 1.231h-29.538c-0.68 0-1.231-0.551-1.231-1.231z"></path>
<path fill="none" stroke="#333" style="stroke: var(--color1, #333)" stroke-linejoin="miter" stroke-linecap="butt" stroke-miterlimit="4" stroke-width="0.8205" d="M1.231 22.974c-0.68 0-1.231 0.551-1.231 1.231s0.551 1.231 1.231 1.231h29.538c0.68 0 1.231-0.551 1.231-1.231s-0.551-1.231-1.231-1.231h-29.538z"></path>
</symbol>
<symbol id="icon-close" viewBox="0 0 32 32">
<path d="M31.296 4.103c0.939-0.939 0.939-2.46 0-3.399s-2.46-0.939-3.399 0l-11.897 11.897-11.897-11.897c-0.939-0.939-2.46-0.939-3.399 0s-0.939 2.46 0 3.399l11.897 11.897-11.897 11.897c-0.939 0.939-0.939 2.46 0 3.399s2.46 0.939 3.399 0l11.897-11.897 11.897 11.897c0.939 0.939 2.46 0.939 3.399 0s0.939-2.46 0-3.399l-11.897-11.897 11.897-11.897z"></path>
</symbol>
<symbol id="icon-comment" viewBox="0 0 32 32">
<path d="M26.352 23.728l0.624 5.056c0.16 1.328-1.264 2.256-2.4 1.568l-5.536-3.296c-0.384-0.224-0.48-0.704-0.272-1.088 0.8-1.472 1.232-3.136 1.232-4.8 0-5.856-5.024-10.624-11.2-10.624-1.264 0-2.496 0.192-3.648 0.576-0.592 0.192-1.168-0.352-1.024-0.96 1.456-5.824 7.056-10.16 13.744-10.16 7.808 0 14.128 5.904 14.128 13.184 0 4.32-2.224 8.144-5.648 10.544z"></path>
<path d="M17.6 21.168c0 1.904-0.704 3.664-1.888 5.056-1.584 1.92-4.096 3.152-6.912 3.152l-4.176 2.48c-0.704 0.432-1.6-0.16-1.504-0.976l0.4-3.152c-2.144-1.488-3.52-3.872-3.52-6.56 0-2.816 1.504-5.296 3.808-6.768 1.424-0.928 3.136-1.456 4.992-1.456 4.864 0 8.8 3.68 8.8 8.224z"></path>
</symbol>
<symbol id="icon-delivery" viewBox="0 0 32 32">
<path d="M7.273 27.636c-1.212 0-2.242-0.424-3.091-1.273s-1.273-1.879-1.273-3.091c-0.8 0-1.485-0.285-2.055-0.855s-0.855-1.255-0.854-2.054v-13.091c0-0.8 0.285-1.485 0.855-2.055s1.255-0.855 2.054-0.854h17.455c0.8 0 1.485 0.285 2.055 0.855s0.855 1.255 0.854 2.054v2.909h3.636c0.242 0 0.461 0.049 0.655 0.145s0.364 0.242 0.509 0.436l3.636 4.836c0.097 0.121 0.17 0.255 0.218 0.4s0.073 0.303 0.073 0.473v5.345c0 0.412-0.14 0.758-0.419 1.037s-0.625 0.418-1.036 0.417h-1.455c0 1.212-0.424 2.242-1.273 3.091s-1.879 1.273-3.091 1.273c-1.212 0-2.242-0.424-3.091-1.273s-1.273-1.879-1.273-3.091h-8.727c0 1.212-0.424 2.242-1.273 3.091s-1.879 1.273-3.091 1.273zM7.273 24.727c0.412 0 0.758-0.14 1.037-0.419s0.418-0.625 0.417-1.036c0-0.412-0.14-0.758-0.419-1.037s-0.625-0.418-1.036-0.417c-0.412 0-0.758 0.14-1.037 0.419s-0.418 0.625-0.417 1.036c0 0.412 0.14 0.758 0.419 1.037s0.625 0.418 1.036 0.417zM24.727 24.727c0.412 0 0.758-0.14 1.037-0.419s0.418-0.625 0.417-1.036c0-0.412-0.14-0.758-0.419-1.037s-0.625-0.418-1.036-0.417c-0.412 0-0.758 0.14-1.037 0.419s-0.418 0.625-0.417 1.036c0 0.412 0.14 0.758 0.419 1.037s0.625 0.418 1.036 0.417zM23.273 17.455h6.182l-3.273-4.364h-2.909v4.364z"></path>
</symbol>
<symbol id="icon-discount" viewBox="0 0 32 32">
<path d="M3.2 3.2c-0.849 0-1.663 0.337-2.263 0.937s-0.937 1.414-0.937 2.263v6.4c0.849 0 1.663 0.337 2.263 0.937s0.937 1.414 0.937 2.263-0.337 1.663-0.937 2.263c-0.6 0.6-1.414 0.937-2.263 0.937v6.4c0 0.849 0.337 1.663 0.937 2.263s1.414 0.937 2.263 0.937h25.6c0.849 0 1.663-0.337 2.263-0.937s0.937-1.414 0.937-2.263v-6.4c-0.849 0-1.663-0.337-2.263-0.937s-0.937-1.414-0.937-2.263 0.337-1.663 0.937-2.263c0.6-0.6 1.414-0.937 2.263-0.937v-6.4c0-0.849-0.337-1.663-0.937-2.263s-1.414-0.937-2.263-0.937h-25.6zM21.6 8l2.4 2.4-13.6 13.6-2.4-2.4 13.6-13.6zM10.896 8.064c1.568 0 2.832 1.264 2.832 2.832 0 0.751-0.298 1.471-0.829 2.003s-1.251 0.829-2.003 0.829c-1.568 0-2.832-1.264-2.832-2.832 0-0.751 0.298-1.471 0.829-2.003s1.251-0.829 2.003-0.829zM21.104 18.272c1.568 0 2.832 1.264 2.832 2.832 0 0.751-0.298 1.471-0.829 2.003s-1.251 0.829-2.003 0.829c-1.568 0-2.832-1.264-2.832-2.832 0-0.751 0.298-1.471 0.829-2.003s1.251-0.829 2.003-0.829z"></path>
</symbol>
<symbol id="icon-leave" viewBox="0 0 32 32">
<path d="M15.086 31.13c-1.006 0-2.019-0.115-3.041-0.344s-2.065-0.556-3.13-0.982c0.366-3.688 1.432-7.131 3.2-10.331s4.038-6.019 6.811-8.457c-3.352 1.707-6.256 3.962-8.71 6.766s-4.168 6.004-5.142 9.6c-0.122-0.091-0.237-0.19-0.344-0.296l-0.342-0.344c-1.432-1.432-2.522-3.032-3.269-4.8s-1.12-3.611-1.119-5.531c0-2.072 0.411-4.053 1.234-5.943s1.966-3.566 3.429-5.029c2.469-2.469 5.669-4.076 9.6-4.822s9.448-0.815 16.549-0.207c0.549 7.284 0.457 12.838-0.274 16.664s-2.316 6.957-4.754 9.393c-1.493 1.493-3.162 2.644-5.007 3.452s-3.741 1.212-5.691 1.21z"></path>
</symbol>
<symbol id="icon-search" viewBox="0 0 32 32">
<path d="M13.023 0c-7.193 0-13.023 5.831-13.023 13.023s5.831 13.023 13.023 13.023c3.194 0 6.12-1.15 8.386-3.059l8.685 8.685c0.436 0.436 1.143 0.436 1.579 0s0.436-1.143 0-1.579l-8.685-8.685c1.909-2.266 3.059-5.191 3.059-8.386 0-7.193-5.831-13.023-13.023-13.023zM2.233 13.023c0-5.96 4.831-10.791 10.791-10.791s10.791 4.831 10.791 10.791c0 5.96-4.831 10.791-10.791 10.791s-10.791-4.831-10.791-10.791z"></path>
</symbol>
<symbol id="icon-smile" viewBox="0 0 32 32">
<path d="M16 32c8.837 0 16-7.163 16-16s-7.163-16-16-16c-8.837 0-16 7.163-16 16s7.163 16 16 16zM10.235 21.685c0.094-0.127 0.212-0.234 0.347-0.315s0.285-0.135 0.441-0.158c0.156-0.023 0.315-0.015 0.468 0.023s0.297 0.107 0.423 0.201c1.165 0.864 2.571 1.363 4.085 1.363s2.92-0.501 4.085-1.363c0.126-0.098 0.271-0.17 0.425-0.212s0.316-0.052 0.474-0.030c0.158 0.022 0.311 0.075 0.448 0.156s0.258 0.189 0.353 0.318c0.095 0.128 0.164 0.274 0.202 0.43s0.045 0.317 0.020 0.474c-0.025 0.158-0.082 0.309-0.166 0.445s-0.195 0.253-0.326 0.346c-1.592 1.191-3.527 1.835-5.515 1.837-1.988-0.002-3.923-0.646-5.515-1.837-0.256-0.19-0.426-0.473-0.472-0.788s0.033-0.635 0.223-0.891zM22.4 13.6c0 1.325-0.717 2.4-1.6 2.4s-1.6-1.075-1.6-2.4c0-1.325 0.717-2.4 1.6-2.4s1.6 1.075 1.6 2.4zM11.2 16c0.883 0 1.6-1.075 1.6-2.4s-0.717-2.4-1.6-2.4c-0.883 0-1.6 1.075-1.6 2.4s0.717 2.4 1.6 2.4z"></path>
</symbol>
<symbol id="icon-support" viewBox="0 0 32 32">
<path d="M29.091 10.18c0.772 0 1.512 0.307 2.057 0.852s0.852 1.286 0.852 2.057v5.818c0 0.771-0.306 1.511-0.852 2.057s-1.285 0.852-2.057 0.852h-1.545c-0.355 2.812-1.723 5.398-3.849 7.273s-4.863 2.909-7.697 2.909v-2.909c2.315 0 4.534-0.919 6.171-2.556s2.556-3.857 2.556-6.171v-8.727c0-2.315-0.919-4.534-2.556-6.171s-3.857-2.556-6.171-2.556-4.534 0.919-6.171 2.556c-1.637 1.637-2.556 3.857-2.556 6.171v10.182h-4.364c-0.772 0-1.511-0.307-2.057-0.852s-0.852-1.286-0.852-2.057v-5.818c0-0.771 0.306-1.511 0.852-2.057s1.286-0.852 2.057-0.852h1.545c0.355-2.812 1.724-5.397 3.85-7.272s4.863-2.909 7.697-2.909 5.571 1.034 7.697 2.909c2.126 1.874 3.495 4.46 3.85 7.272h1.545zM9.833 21.504l1.542-2.467c1.386 0.868 2.99 1.328 4.625 1.325 1.636 0.003 3.239-0.457 4.625-1.325l1.542 2.467c-1.848 1.158-3.986 1.771-6.167 1.767-2.181 0.003-4.319-0.609-6.167-1.767z"></path>
</symbol>
<symbol id="icon-dots" viewBox="0 0 54 32">
<path fill="#e7cec0" style="fill: var(--color1, #e7cec0)" d="M5.818 2.909c0 1.607-1.302 2.909-2.909 2.909s-2.909-1.302-2.909-2.909c0-1.607 1.302-2.909 2.909-2.909s2.909 1.302 2.909 2.909z"></path>
<path fill="#e7cec0" style="fill: var(--color1, #e7cec0)" d="M5.818 12.606c0 1.607-1.302 2.909-2.909 2.909s-2.909-1.302-2.909-2.909c0-1.607 1.302-2.909 2.909-2.909s2.909 1.302 2.909 2.909z"></path>
<path fill="#e7cec0" style="fill: var(--color1, #e7cec0)" d="M5.818 22.303c0 1.607-1.302 2.909-2.909 2.909s-2.909-1.302-2.909-2.909c0-1.607 1.302-2.909 2.909-2.909s2.909 1.302 2.909 2.909z"></path>
<path fill="#e7cec0" style="fill: var(--color1, #e7cec0)" d="M5.818 32c0 1.607-1.302 2.909-2.909 2.909s-2.909-1.302-2.909-2.909c0-1.607 1.302-2.909 2.909-2.909s2.909 1.302 2.909 2.909z"></path>
<path fill="#e7cec0" style="fill: var(--color1, #e7cec0)" d="M15.515 2.909c0 1.607-1.302 2.909-2.909 2.909s-2.909-1.302-2.909-2.909c0-1.607 1.302-2.909 2.909-2.909s2.909 1.302 2.909 2.909z"></path>
<path fill="#e7cec0" style="fill: var(--color1, #e7cec0)" d="M15.515 12.606c0 1.607-1.302 2.909-2.909 2.909s-2.909-1.302-2.909-2.909c0-1.607 1.302-2.909 2.909-2.909s2.909 1.302 2.909 2.909z"></path>
<path fill="#e7cec0" style="fill: var(--color1, #e7cec0)" d="M15.515 22.303c0 1.607-1.302 2.909-2.909 2.909s-2.909-1.302-2.909-2.909c0-1.607 1.302-2.909 2.909-2.909s2.909 1.302 2.909 2.909z"></path>
<path fill="#e7cec0" style="fill: var(--color1, #e7cec0)" d="M15.515 32c0 1.607-1.302 2.909-2.909 2.909s-2.909-1.302-2.909-2.909c0-1.607 1.302-2.909 2.909-2.909s2.909 1.302 2.909 2.909z"></path>
<path fill="#e7cec0" style="fill: var(--color1, #e7cec0)" d="M25.212 2.909c0 1.607-1.302 2.909-2.909 2.909s-2.909-1.302-2.909-2.909c0-1.607 1.302-2.909 2.909-2.909s2.909 1.302 2.909 2.909z"></path>
<path fill="#e7cec0" style="fill: var(--color1, #e7cec0)" d="M25.212 12.606c0 1.607-1.302 2.909-2.909 2.909s-2.909-1.302-2.909-2.909c0-1.607 1.302-2.909 2.909-2.909s2.909 1.302 2.909 2.909z"></path>
<path fill="#e7cec0" style="fill: var(--color1, #e7cec0)" d="M25.212 22.303c0 1.607-1.302 2.909-2.909 2.909s-2.909-1.302-2.909-2.909c0-1.607 1.302-2.909 2.909-2.909s2.909 1.302 2.909 2.909z"></path>
<path fill="#e7cec0" style="fill: var(--color1, #e7cec0)" d="M25.212 32c0 1.607-1.302 2.909-2.909 2.909s-2.909-1.302-2.909-2.909c0-1.607 1.302-2.909 2.909-2.909s2.909 1.302 2.909 2.909z"></path>
<path fill="#e7cec0" style="fill: var(--color1, #e7cec0)" d="M34.909 2.909c0 1.607-1.302 2.909-2.909 2.909s-2.909-1.302-2.909-2.909c0-1.607 1.302-2.909 2.909-2.909s2.909 1.302 2.909 2.909z"></path>
<path fill="#e7cec0" style="fill: var(--color1, #e7cec0)" d="M34.909 12.606c0 1.607-1.302 2.909-2.909 2.909s-2.909-1.302-2.909-2.909c0-1.607 1.302-2.909 2.909-2.909s2.909 1.302 2.909 2.909z"></path>
<path fill="#e7cec0" style="fill: var(--color1, #e7cec0)" d="M34.909 22.303c0 1.607-1.302 2.909-2.909 2.909s-2.909-1.302-2.909-2.909c0-1.607 1.302-2.909 2.909-2.909s2.909 1.302 2.909 2.909z"></path>
<path fill="#e7cec0" style="fill: var(--color1, #e7cec0)" d="M34.909 32c0 1.607-1.302 2.909-2.909 2.909s-2.909-1.302-2.909-2.909c0-1.607 1.302-2.909 2.909-2.909s2.909 1.302 2.909 2.909z"></path>
<path fill="#e7cec0" style="fill: var(--color1, #e7cec0)" d="M44.606 2.909c0 1.607-1.302 2.909-2.909 2.909s-2.909-1.302-2.909-2.909c0-1.607 1.302-2.909 2.909-2.909s2.909 1.302 2.909 2.909z"></path>
<path fill="#e7cec0" style="fill: var(--color1, #e7cec0)" d="M44.606 12.606c0 1.607-1.302 2.909-2.909 2.909s-2.909-1.302-2.909-2.909c0-1.607 1.302-2.909 2.909-2.909s2.909 1.302 2.909 2.909z"></path>
<path fill="#e7cec0" style="fill: var(--color1, #e7cec0)" d="M44.606 22.303c0 1.607-1.302 2.909-2.909 2.909s-2.909-1.302-2.909-2.909c0-1.607 1.302-2.909 2.909-2.909s2.909 1.302 2.909 2.909z"></path>
<path fill="#e7cec0" style="fill: var(--color1, #e7cec0)" d="M44.606 32c0 1.607-1.302 2.909-2.909 2.909s-2.909-1.302-2.909-2.909c0-1.607 1.302-2.909 2.909-2.909s2.909 1.302 2.909 2.909z"></path>
<path fill="#e7cec0" style="fill: var(--color1, #e7cec0)" d="M54.303 2.909c0 1.607-1.302 2.909-2.909 2.909s-2.909-1.302-2.909-2.909c0-1.607 1.302-2.909 2.909-2.909s2.909 1.302 2.909 2.909z"></path>
<path fill="#e7cec0" style="fill: var(--color1, #e7cec0)" d="M54.303 12.606c0 1.607-1.302 2.909-2.909 2.909s-2.909-1.302-2.909-2.909c0-1.607 1.302-2.909 2.909-2.909s2.909 1.302 2.909 2.909z"></path>
<path fill="#e7cec0" style="fill: var(--color1, #e7cec0)" d="M54.303 22.303c0 1.607-1.302 2.909-2.909 2.909s-2.909-1.302-2.909-2.909c0-1.607 1.302-2.909 2.909-2.909s2.909 1.302 2.909 2.909z"></path>
<path fill="#e7cec0" style="fill: var(--color1, #e7cec0)" d="M54.303 32c0 1.607-1.302 2.909-2.909 2.909s-2.909-1.302-2.909-2.909c0-1.607 1.302-2.909 2.909-2.909s2.909 1.302 2.909 2.909z"></path>
</symbol>
<symbol id="icon-ellipse" viewBox="0 0 29 32">
<path fill="#e7cec0" style="fill: var(--color1, #e7cec0)" d="M50.504 6.748c0 13.946-11.306 25.252-25.252 25.252s-25.252-11.306-25.252-25.252c0-13.946 11.306-25.252 25.252-25.252s25.252 11.306 25.252 25.252z"></path>
</symbol>
<symbol id="icon-facebook" viewBox="0 0 17 32">
<path fill="#fff" style="fill: var(--color2, #fff)" d="M15.38 17.157l0.868-5.518h-5.35v-3.587c0-1.509 0.747-2.983 3.135-2.983h2.466v-4.699c-1.436-0.229-2.888-0.353-4.342-0.371-4.403 0-7.278 2.647-7.278 7.432v4.207h-4.881v5.518h4.881v13.346h6.018v-13.346h4.481z"></path>
</symbol>
<symbol id="icon-instagram" viewBox="0 0 32 32">
<path fill="#fff" style="fill: var(--color2, #fff)" d="M10.166 15.252c0-2.808 2.275-5.084 5.082-5.084s5.083 2.277 5.083 5.084c0 2.808-2.276 5.084-5.083 5.084s-5.082-2.277-5.082-5.084zM7.418 15.252c0 4.325 3.505 7.831 7.829 7.831s7.829-3.506 7.829-7.831c0-4.325-3.505-7.832-7.829-7.832s-7.829 3.506-7.829 7.832zM21.557 7.11c-0 0.362 0.107 0.716 0.308 1.017s0.487 0.536 0.821 0.674c0.334 0.139 0.702 0.175 1.057 0.105s0.681-0.245 0.937-0.501 0.43-0.582 0.501-0.937c0.071-0.355 0.035-0.723-0.104-1.057s-0.373-0.62-0.674-0.822c-0.301-0.201-0.654-0.309-1.016-0.309h-0.001c-0.485 0-0.95 0.193-1.293 0.536s-0.536 0.808-0.537 1.293v0zM9.087 27.666c-1.487-0.068-2.295-0.315-2.831-0.525-0.712-0.277-1.22-0.607-1.754-1.141s-0.865-1.041-1.141-1.753c-0.209-0.537-0.457-1.345-0.524-2.832-0.074-1.608-0.089-2.091-0.089-6.163s0.016-4.555 0.089-6.164c0.068-1.487 0.317-2.294 0.524-2.832 0.277-0.712 0.607-1.22 1.141-1.754s1.041-0.865 1.754-1.141c0.537-0.209 1.345-0.457 2.831-0.525 1.607-0.074 2.090-0.089 6.16-0.089s4.553 0.016 6.162 0.089c1.487 0.068 2.293 0.317 2.832 0.525 0.712 0.276 1.22 0.607 1.754 1.141s0.863 1.042 1.141 1.754c0.209 0.537 0.457 1.345 0.524 2.832 0.074 1.609 0.089 2.091 0.089 6.164s-0.015 4.555-0.089 6.163c-0.068 1.487-0.317 2.295-0.524 2.832-0.277 0.712-0.607 1.22-1.141 1.753s-1.042 0.864-1.754 1.141c-0.537 0.209-1.345 0.457-2.832 0.525-1.607 0.074-2.090 0.089-6.162 0.089s-4.553-0.015-6.16-0.089v0zM8.961 0.092c-1.623 0.074-2.732 0.331-3.701 0.708-1.003 0.389-1.852 0.912-2.701 1.759s-1.369 1.698-1.759 2.702c-0.377 0.97-0.634 2.078-0.708 3.702-0.075 1.626-0.092 2.146-0.092 6.288s0.017 4.662 0.092 6.288c0.074 1.624 0.331 2.732 0.708 3.702 0.389 1.003 0.91 1.855 1.759 2.702s1.698 1.369 2.701 1.759c0.97 0.377 2.078 0.634 3.701 0.708 1.627 0.074 2.145 0.092 6.286 0.092s4.66-0.017 6.286-0.092c1.623-0.074 2.732-0.331 3.701-0.708 1.003-0.391 1.852-0.912 2.701-1.759s1.368-1.699 1.759-2.702c0.377-0.97 0.636-2.078 0.708-3.702 0.074-1.627 0.091-2.146 0.091-6.288s-0.017-4.662-0.091-6.288c-0.074-1.624-0.331-2.733-0.708-3.702-0.39-1.003-0.911-1.853-1.759-2.702s-1.698-1.37-2.7-1.759c-0.971-0.377-2.079-0.636-3.701-0.708-1.626-0.074-2.146-0.092-6.286-0.092s-4.661 0.017-6.287 0.092z"></path>
</symbol>
<symbol id="icon-line" viewBox="0 0 50 32">
<path fill="none" stroke="#e7cec0" style="stroke: var(--color1, #e7cec0)" stroke-linejoin="miter" stroke-linecap="round" stroke-miterlimit="4" stroke-width="2.7527" d="M1.377 32.757l10.326-17.886c1.33-2.304 4.276-3.093 6.58-1.763l13.714 7.918c2.304 1.33 5.25 0.541 6.58-1.763l10.326-17.886"></path>
</symbol>
<symbol id="icon-logo" viewBox="0 0 64 32">
<path fill="#fff" style="fill: var(--color2, #fff)" d="M7.99 21.56c1.025 0 1.537 0.56 1.537 1.681 0 1.097-0.509 1.654-1.537 1.654h-4.302v3.463h5.506c1.024 0 1.536 0.56 1.537 1.681 0 1.097-0.509 1.655-1.537 1.655h-7.248c-1.358 0-1.946-0.591-1.946-1.935v-12.681c0-1.35 0.589-1.935 1.946-1.935h7.12c1.025 0 1.537 0.56 1.537 1.68 0 1.097-0.509 1.655-1.537 1.655h-5.378v3.081h4.302z"></path>
<path fill="#fff" style="fill: var(--color2, #fff)" d="M19.795 28.562c0.896 0 1.612-0.178 2.33-0.611 0.509-0.306 0.871-0.585 1.28-0.585 0.849 0 1.666 1.044 1.666 1.833 0 0.661-0.564 1.273-1.409 1.756-1.103 0.637-2.535 1.018-4.123 1.018-4.508 0-7.966-3.106-7.966-8.605 0-5.474 3.432-8.504 7.94-8.504 1.665 0 3.124 0.407 4.148 0.993 0.849 0.484 1.409 1.097 1.409 1.732 0 0.815-0.871 1.884-1.742 1.884-0.41 0-0.769-0.28-1.28-0.585-0.641-0.408-1.511-0.611-2.382-0.611-2.228 0-4.098 1.476-4.098 5.067 0.004 3.614 1.921 5.218 4.226 5.218z"></path>
<path fill="#fff" style="fill: var(--color2, #fff)" d="M33.949 14.838c4.994 0 8.221 3.284 8.221 8.581s-3.224 8.581-8.221 8.581c-4.997 0-8.221-3.285-8.221-8.581s3.227-8.581 8.221-8.581zM33.949 28.638c2.535 0 4.226-1.884 4.226-5.219s-1.691-5.22-4.226-5.22c-2.535 0-4.226 1.885-4.226 5.22s1.69 5.219 4.226 5.219z"></path>
<path fill="#fff" style="fill: var(--color2, #fff)" d="M31.58 3.543c-4.147 2.516-4.931 6.833-4.446 10.409 1.888-1.332 6.559 0.073 10.401-2.322 4.787-2.984 5.105-8.773 4.288-11.631-2.133 2.887-5.664 0.765-10.242 3.543z"></path>
<path fill="#fff" style="fill: var(--color2, #fff)" d="M23.019 7.118c2.67 1.663 3.189 4.493 2.885 6.833-1.216-0.879-4.21 0.026-6.683-1.556-3.084-1.971-3.309-5.763-2.792-7.634 1.384 1.899 3.642 0.521 6.59 2.356z"></path>
<path fill="#fff" style="fill: var(--color2, #fff)" d="M47.056 20.47c-0.355 0-0.675-0.061-0.959-0.182-0.284-0.126-0.507-0.303-0.67-0.53s-0.244-0.492-0.244-0.794h0.928c0.020 0.227 0.109 0.414 0.266 0.56 0.162 0.146 0.388 0.219 0.677 0.219 0.299 0 0.533-0.071 0.7-0.212 0.167-0.146 0.251-0.333 0.251-0.56 0-0.177-0.053-0.32-0.16-0.431-0.102-0.111-0.231-0.197-0.388-0.257-0.152-0.061-0.365-0.126-0.639-0.197-0.345-0.091-0.627-0.182-0.845-0.272-0.213-0.096-0.396-0.242-0.548-0.439s-0.228-0.459-0.228-0.787c0-0.303 0.076-0.568 0.228-0.794s0.365-0.401 0.639-0.522c0.274-0.121 0.591-0.182 0.951-0.182 0.512 0 0.931 0.129 1.256 0.386 0.33 0.252 0.512 0.6 0.548 1.044h-0.959c-0.015-0.192-0.107-0.356-0.274-0.492s-0.388-0.204-0.662-0.204c-0.249 0-0.452 0.063-0.609 0.189s-0.236 0.308-0.236 0.545c0 0.161 0.048 0.295 0.145 0.401 0.102 0.101 0.228 0.182 0.381 0.242s0.36 0.126 0.624 0.197c0.35 0.096 0.634 0.192 0.852 0.288 0.223 0.096 0.411 0.245 0.563 0.446 0.157 0.197 0.236 0.462 0.236 0.794 0 0.267-0.074 0.52-0.221 0.757-0.142 0.237-0.353 0.429-0.632 0.575-0.274 0.141-0.599 0.212-0.974 0.212z"></path>
<path fill="#fff" style="fill: var(--color2, #fff)" d="M52.074 16.18c0.32 0 0.604 0.068 0.852 0.204 0.254 0.136 0.452 0.338 0.594 0.605 0.147 0.267 0.221 0.59 0.221 0.968v2.459h-0.86v-2.33c0-0.373-0.094-0.658-0.282-0.855-0.188-0.202-0.444-0.303-0.769-0.303s-0.583 0.101-0.776 0.303c-0.188 0.197-0.282 0.482-0.282 0.855v2.33h-0.868v-5.599h0.868v1.914c0.147-0.177 0.332-0.313 0.556-0.409 0.228-0.096 0.477-0.144 0.746-0.144z"></path>
<path fill="#fff" style="fill: var(--color2, #fff)" d="M56.666 20.485c-0.396 0-0.753-0.088-1.073-0.265-0.32-0.182-0.571-0.434-0.753-0.757-0.183-0.328-0.274-0.706-0.274-1.135 0-0.424 0.094-0.8 0.282-1.127s0.444-0.58 0.769-0.757 0.687-0.265 1.088-0.265c0.401 0 0.764 0.088 1.088 0.265s0.581 0.429 0.769 0.757c0.188 0.328 0.282 0.704 0.282 1.127s-0.096 0.8-0.289 1.127c-0.193 0.328-0.457 0.583-0.791 0.764-0.33 0.177-0.695 0.265-1.096 0.265zM56.666 19.736c0.223 0 0.431-0.053 0.624-0.159 0.198-0.106 0.358-0.265 0.479-0.477s0.183-0.469 0.183-0.772c0-0.303-0.058-0.557-0.175-0.764-0.117-0.212-0.271-0.371-0.464-0.477s-0.401-0.159-0.624-0.159c-0.223 0-0.431 0.053-0.624 0.159-0.188 0.106-0.337 0.265-0.449 0.477-0.112 0.207-0.167 0.462-0.167 0.764 0 0.449 0.114 0.797 0.342 1.044 0.233 0.242 0.525 0.363 0.875 0.363z"></path>
<path fill="#fff" style="fill: var(--color2, #fff)" d="M60.568 16.861c0.147-0.192 0.348-0.353 0.601-0.484s0.54-0.197 0.86-0.197c0.365 0 0.698 0.091 0.997 0.272 0.304 0.177 0.543 0.426 0.715 0.749s0.259 0.694 0.259 1.112c0 0.419-0.086 0.794-0.259 1.127-0.172 0.328-0.411 0.585-0.715 0.772-0.299 0.182-0.632 0.272-0.997 0.272-0.32 0-0.604-0.063-0.852-0.189-0.249-0.131-0.452-0.293-0.609-0.484v2.588h-0.868v-6.152h0.868v0.613zM63.117 18.313c0-0.288-0.061-0.535-0.183-0.742-0.117-0.212-0.274-0.371-0.472-0.477-0.193-0.111-0.401-0.166-0.624-0.166-0.218 0-0.426 0.055-0.624 0.166-0.193 0.111-0.35 0.272-0.472 0.484-0.117 0.212-0.175 0.462-0.175 0.749s0.058 0.54 0.175 0.757c0.122 0.212 0.279 0.373 0.472 0.484 0.198 0.111 0.406 0.166 0.624 0.166 0.223 0 0.431-0.056 0.624-0.166 0.198-0.116 0.355-0.282 0.472-0.499 0.122-0.217 0.183-0.469 0.183-0.757z"></path>
</symbol>
<symbol id="icon-phrase" viewBox="0 0 237 32">
<path fill="#e7cec0" style="fill: var(--color1, #e7cec0)" d="M1.332 27.479c0.197 0 0.31-0.095 0.253-0.199s-0.056-0.36 0.169-0.209c0.225 0.152 0.629 0.806 0.666 0.654s0.197-0.569 0.235-0.408c0.038 0.161 0.31 0.474 0.554 0.427 0.543-0.022 1.087 0.035 1.614 0.171h0.404c0.192 0.011 0.382 0.050 0.563 0.114 0.235 0.047 0.572 0 0.666 0.161 0.225 0.284 0.347-0.114 0.582 0l0.206 0.085c0.405-0.091 0.825-0.091 1.229 0h0.31c0.413 0 0.891-0.199 1.239-0.095l0.488 0.142c0.639-0.169 1.293-0.277 1.952-0.322l0.619 0.057c0.607 0.123 1.237 0.064 1.811-0.171 0.279-0.1 0.584-0.1 0.863 0 0.090 0.047 0.19 0.071 0.291 0.071s0.201-0.024 0.291-0.071c0.291-0.095 0.685-0.464 1.051 0 0.070 0.023 0.146 0.023 0.216 0 0.178-0.303 0.375 0.057 0.554 0 0.188-0.122 0.394-0.215 0.61-0.275h0.197c0.454 0.076 0.917 0.076 1.37 0 0.699-0.104 1.387-0.272 2.055-0.502l0.178 0.133c0.121 0.069 0.259 0.101 0.398 0.091s0.271-0.061 0.381-0.148c0.322-0.135 0.659-0.227 1.004-0.275 0.327-0.124 0.673-0.189 1.023-0.19 0.375 0.057 0.638-0.275 0.985-0.104 0 0 0.075 0.076 0.084 0.066 0.375-0.123 0.638-0.502 1.145-0.313l1.211-0.133 0.375-0.171c0.626-0.24 1.274-0.421 1.933-0.54l0.591-0.076c0.244 0 0.526 0 0.488-0.303 0.081-0.064 0.179-0.104 0.282-0.114l0.619 0.36c0.378-0.321 0.79-0.597 1.229-0.825 0.391-0.169 0.765-0.375 1.117-0.616 0.544-0.081 1.093-0.122 1.642-0.123 0.777-0.393 1.521-0.85 2.224-1.365h0.985c0.46-0.237 0.497-0.796 0.094-1.251l-0.197-0.427c-0.244-0.468-0.448-0.956-0.61-1.46-0.418-1.069-0.601-2.217-0.535-3.365l0.131-0.711c0.056-0.787 0.169-1.744 0.244-2.132l-0.094-0.379c-0.024-0.399 0.054-0.797 0.225-1.156l0.131-0.37c0.206-0.398 0.45-0.844 0.544-1.005 0.17-0.299 0.305-0.617 0.404-0.948 0-0.171 0.601-0.474 0.657-0.569v-0.085l0.263-0.616c0.639-0.67 1.316-1.303 2.027-1.896l0.206-0.445c0.15-0.332 0.629-0.303 0.704-0.692 0-0.199 0.544-0.341 0.835-0.521 0.133-0.080 0.253-0.179 0.357-0.294 0.113-0.133 0.15-0.313 0.282-0.417s0.244 0.294 0.441 0c0.197-0.294 0.572 0 0.469-0.341l1.192-0.815 0.507-0.303c0.619-0.256 1.595-0.682 2.168-0.948l0.46-0.303c0.272-0.158 0.571-0.261 0.882-0.303 0.476-0.131 0.943-0.293 1.398-0.483 0.187-0.113 0.397-0.183 0.615-0.205s0.437 0.006 0.643 0.081c0.056 0 0.169 0 0.253 0h0.525c0.675-0.125 1.366-0.141 2.046-0.047h1.042c0.507 0.079 1.017 0.13 1.53 0.152 0.517 0.181 1.022 0.396 1.511 0.644 0.945 0.468 1.836 1.040 2.655 1.706l0.066 0.464 0.057 0.379c0.325 0.306 0.606 0.657 0.835 1.043l0.15 0.294c0.169 0.332 0.319 0.663 0.469 0.995 0.047 0.085 0 0.218 0.103 0.275 0.203 0.090 0.4 0.191 0.591 0.303 0.15 0.133-0.215 0.351 0.094 0.531 0.159 0.095 0.169 0.36 0.216 0.55 0.15 0.448 0.248 0.913 0.291 1.384v0.531c-0.122 0.578-0.469 1.753-0.76 2.616l-0.272 0.777-0.188 0.569c-0.529 0.507-1.024 1.048-1.483 1.621l-0.46 0.218-0.385 0.18c-0.329 0.43-0.718 0.81-1.154 1.128-0.338 0.227-1.305 1.043-1.52 1.242s-0.854 0.635-0.751 0.787c0.103 0.152-0.779 0.303-1.135 0.483s-1.877 1.772-3.219 2.673l-1.286 0.739c-1.595 0.948-3.256 1.763-4.898 2.625l-0.291 0.152c-0.366 0.123-0.113 0.474 0.544 0.787 1.402 0.519 2.834 0.949 4.289 1.289l0.891 0.161 0.516 0.095c0.505-0.068 1.016-0.068 1.52 0 0.263 0.066 1.192 0 1.427 0l0.197 0.076c0.244 0.104 0.329-0.341 0.601-0.095 0.054 0.020 0.114 0.020 0.169 0 0.15-0.047 1.436-0.237 1.586-0.246s0.244-0.095 0.366-0.095c0.601 0.047 1.201-0.559 1.821 0 0.45-0.139 0.907-0.253 1.37-0.341 0.591-0.133 2.131-0.635 2.009-0.948l0.525 0.398 0.31 0.237c0.319-0.114 0.938-0.303 1.389-0.436s1.98-0.626 2.477-0.692l0.319-0.199c0.357-0.218 0.685 0.095 0.694 0.057l0.282-0.844 1.821-0.085c0.173 0.023 0.346 0.054 0.516 0.095 0.132 0 0.582-0.512 0.939-0.493 0.758-0.151 1.498-0.386 2.205-0.701l0.516-0.152c0.351-0.183 0.74-0.283 1.135-0.294 0.178 0 0.385-0.227 0.601-0.294h0.122c0.179 0 0.422-0.152 0.554-0.436l0.422 0.322c0 0 0.394-0.275 0.638-0.341l0.197-0.057c0.318-0.002 0.634-0.049 0.939-0.142l0.131-0.228c0.073-0.107 0.183-0.182 0.31-0.208 0.45 0 1.126 0 1.314-0.227l0.394-0.512c0.666-0.199 1.342-0.426 1.492-0.502h0.15c0.319 0 0.676 0.066 0.704-0.36 0.104-0.043 0.216-0.066 0.329-0.066 0.46 0 0.779-0.066 0.938-0.502 0.066-0.237 0.291 0.066 0.319 0.047l0.309-0.246 1.877-0.815 0.591-0.123 0.525-0.104c0.478-0.237 1.276-0.607 1.774-0.815l0.413-0.256c0.169-0.114 0.601 0.284 0.582-0.227 0-0.085 0.45-0.199 0.703-0.294l0.282-0.114c0.454-0.119 0.897-0.278 1.323-0.474 0.394-0.19 1.952-0.825 2.524-1.128 0.898-0.307 1.813-0.56 2.74-0.758 0.395-0.206 0.803-0.386 1.22-0.54 0.254-0.057 1.023-0.464 1.249-0.512 0.389 0.019 0.774 0.089 1.145 0.209 0.122 0 0.273 0-0.113-0.161l0.103-0.379c0.066-0.227 0.188-0.284 0.413-0.218s0.375 0.19 0.394 0.171l0.76-0.72c0.621 0.094 1.249 0.148 1.877 0.161-0.113 0-0.169-0.208 0.094-0.313 0.558-0.196 1.129-0.351 1.708-0.464l0.244-0.171 0.272-0.199c0.612-0.082 1.205-0.268 1.755-0.55h1.164c0.133-0.117 0.291-0.203 0.462-0.249s0.35-0.052 0.523-0.017c0.225 0.104 0.807 0 0.713-0.322l0.572-0.076c0.244 0 0.451-0.152 0.685 0 0.103 0 0.76-0.341 1.454-0.682l0.572 0.047c0.307 0.088 0.621 0.145 0.939 0.171 0.287-0.101 0.558-0.241 0.807-0.417 0.263-0.151 0.54-0.278 0.826-0.379l0.197-0.066c0.297 0.055 0.581 0.167 0.835 0.332v-0.37c0 0 0.347-0.095 0.544-0.104l0.601-0.047c0.479-0.065 0.965-0.065 1.445 0 0.092 0.096 0.196 0.178 0.31 0.246 0.026-0.027 0.044-0.061 0.052-0.098s0.006-0.075-0.005-0.111c0-0.085-0.057-0.398 0-0.417 0.274 0.082 0.533 0.207 0.77 0.37l0.075-0.493c0.131-0.045 0.273-0.045 0.404 0 0.216 0.227 0.31 0 0.46-0.047s0.263 0.161 0.404 0.18h0.15l0.714-0.294c0.551-0.213 1.129-0.347 1.717-0.398l0.366-0.208c0.168-0.113 0.365-0.174 0.567-0.174s0.4 0.060 0.568 0.174c0.054 0.020 0.114 0.020 0.169 0l0.516-0.569c0.723 0.199 1.201 0.389 1.079 0.408s-0.441 0.152-0.179 0.208l0.075 0.095c0.235 0.256 0.319-0.047 0.46-0.057s0.282-0.19 0.394-0.265l0.319-0.19c0.591-0.161 0.939-0.133 0.714 0.057v0.18c0.058 0.061 0.131 0.106 0.212 0.131s0.166 0.029 0.248 0.011l0.047-0.076 0.3-0.578c0.61 0 1.305-0.095 1.548-0.133h0.113l0.432 0.152c0.381-0.088 0.757-0.199 1.126-0.332 0.188-0.076 0.817 0.123 0.939 0.095s0.628 0 0.713-0.057c0.084-0.057 0.431-0.19 0.563-0.123 0.26 0.116 0.541 0.177 0.826 0.18 0.522-0.147 1.033-0.331 1.53-0.55l1.126 0.18c0.733-0.221 1.499-0.305 2.262-0.246l0.478 0.047h0.263c0.359-0.089 0.73-0.118 1.098-0.085 0.595-0.032 1.185-0.137 1.755-0.313l0.282 0.19 0.291 0.19c0.252-0.028 0.498-0.092 0.732-0.19 0.722 0.398 1.557 0 2.299 0.218l0.253 0.076c0.263 0.152 0.554 0.218 0.648 0.142 0.381-0.127 0.792-0.127 1.173 0 0.422 0.171 2.43 0.531 3.529 0.787l0.938 0.256c0.394 0.104 0.779 0.284 1.192 0.398l0.469 0.133 1.145 0.948c0.275 0.22 0.534 0.457 0.779 0.711 0 0.076 0 0.398 0 0.512s0.638 0.246 0.807 0.284v0.417c0.19 0.075 0.394 0.109 0.597 0.099s0.403-0.063 0.585-0.156c0.329-0.19 1.464 0.209 1.661 0.218 0.405-0.043 0.815-0.014 1.211 0.085l0.347-0.265 0.057-0.047c0.217-0.016 0.433-0.044 0.647-0.085 0.406 0.005 0.811 0.047 1.211 0.123 0.14 0 0.478 0.18 0.581 0.19s1.108 0 1.99-0.057l0.797 0.047c0.228 0.057 0.467 0.057 0.694 0 0.304-0.108 0.635-0.108 0.939 0l0.282 0.171h1.304c0.244 0 0.62 0 0.704 0.066l0.235 0.284c0.202-0.163 0.415-0.312 0.638-0.445 0.159-0.095 0.873 0.322 1.202 0.398h0.601c0.285-0.053 0.573-0.085 0.863-0.095 0.169 0 0.939 0.104 1.239 0.142h0.319l0.394 0.047 1.173 0.18c0.423 0.008 0.847-0.021 1.267-0.085 0.263 0 1.126 0.066 1.558 0s2.111 0.445 2.947 0.445l0.703 0.218c0.394 0.133 0.591-0.322 0.939-0.085l0.244 0.142c0.309 0.074 0.63 0.074 0.939 0h0.15c0.3-0.047 0.695-0.208 0.704 0.275 0 0 0.347 0.095 0.404 0l0.329-0.284c0.388 0.078 0.768 0.193 1.135 0.341 0.225 0.095 0.938-0.142 1.069-0.076s0.723 0.256 0.826 0.18c0.103-0.076 0.413-0.171 0.356 0s0.704 0 0.939 0h0.948c0.686-0.002 1.36 0.181 1.952 0.531l0.329-0.322c0.375-0.37 0.563 0.095 0.854 0.076 0.162-0.035 0.329-0.036 0.49-0.002s0.315 0.103 0.448 0.201c0.164-0.041 0.316-0.122 0.441-0.237 0.132-0.114 0.939 0.133 1.267 0.18h0.329c0.319 0 0.675-0.085 0.938 0.209 0.076 0.028 0.159 0.028 0.235 0l0.347-0.559c0.45 0.172 0.886 0.378 1.305 0.616 0.559 0.042 1.121 0.042 1.679 0l0.216 0.161c0.366 0.265 0.488-0.114 0.723 0s0.666 0.265 0.76 0.19c0.329-0.265 0.554 0.066 0.826 0 0.276-0.011 0.55 0.048 0.798 0.171l0.235 0.085c0.569-0.038 1.139-0.038 1.708 0 0.563 0 2.196 0.209 2.383 0.265s0.647 0.076 0.798 0.142c0.298 0.023 0.598 0.004 0.892-0.057 0.439 0.065 0.859 0.227 1.229 0.474l0.347-0.436c0.506 0.164 1.023 0.291 1.548 0.379 0.591 0.104 2.346 0.313 2.58 0.389 0.288 0.052 0.581 0.068 0.873 0.047 0.15 0 0.826 0.095 1.173 0.161l0.235 0.152c0.329 0.218 0.545 0.464 1.023 0.142l0.178-0.123c0.448 0.072 0.878 0.23 1.267 0.464l0.159 0.218 0.309 0.427 1.286-0.095c0.206 0 0.845 0 0.863 0.076 0.068 0.124 0.165 0.228 0.283 0.304s0.253 0.121 0.393 0.132c0.328 0 0.882 0.654 0.666 0.559-0.255-0.116-0.529-0.183-0.807-0.199-0.047 0.047-0.188 0.351-0.057 0.455h0.141c0.488 0 0.413 0.303 0.441 0.569s-0.357 0.398 0 0.682l0.178 0.161c0.007 0.39-0.015 0.779-0.066 1.166 0 0.313-1.023 0.37-1.201 0.389s-0.939 0-1.229 0-1.464-0.199-1.764-0.161c-0.3 0.038-1.361-0.256-1.652-0.237-0.387-0.038-0.777-0.038-1.163 0-0.216 0.095-1.117-0.313-1.708-0.36s-2.609-0.199-3.2-0.256c-0.591-0.057-2.28-0.427-2.496-0.502h-0.178l-1.295 0.133c-1.398-0.199-2.918-0.427-3.397-0.512h-0.431c-0.403 0.009-0.804-0.059-1.182-0.199l-0.244-0.123-1.229 0.152c-0.263 0-1.192-0.199-1.454-0.161s-1.248-0.265-1.633-0.303c-0.674-0.015-1.347 0.014-2.018 0.085l-0.113-0.104c-0.244-0.227-0.45 0-0.666-0.057-0.228-0.063-0.46-0.108-0.694-0.133-0.291 0-0.591 0-0.882 0s-0.516-0.237-0.647-0.18c-0.516 0.237-0.939-0.104-1.454 0-0.293 0.038-0.589 0.038-0.882 0h-0.254c-0.29-0.058-0.575-0.138-0.854-0.237h-0.235c-0.138 0.044-0.285 0.055-0.428 0.032s-0.279-0.079-0.397-0.164l-0.066-0.057c-0.459 0.135-0.931 0.218-1.407 0.246-0.578-0.075-1.143-0.228-1.68-0.455l-1.361-0.057c-0.657 0-2.665-0.209-3.012-0.256s-1.464-0.237-1.717-0.294h-0.235c-0.394 0-0.77 0.161-1.201 0s-0.817 0.114-1.192-0.142l-0.375-0.256c-0.525 0.035-1.052 0.035-1.577 0-0.366 0-1.877-0.047-2.553-0.095s-2.486-0.19-2.674-0.161c-0.318 0.002-0.634-0.043-0.939-0.133-0.159-0.057-1.013 0.18-1.548 0.218-0.794-0.094-1.58-0.24-2.356-0.436h-2.449c-2.421 0-4.739-0.057-5.152-0.123l-0.309 0.303c-0.066 0.076-0.338 0.066-0.479 0s-0.356-0.36-0.619-0.123l-0.291 0.275c-0.268 0.298-0.412 0.688-0.404 1.090l-0.225 0.237c0 0.047 0.075 0.19 0.094 0.284l0.047 0.246c-0.17-0.062-0.356-0.062-0.526 0v0.19c0.027 0.278-0.036 0.557-0.178 0.796-0.141 0.294-0.939 0.995-1.332 0.948v0.341c-0.014 0.141-0.059 0.278-0.132 0.399s-0.172 0.225-0.29 0.302l-0.075 0.057c-0.008 0.241 0.011 0.483 0.057 0.72l-0.366 0.152h-0.094c-0.075 0.095-0.3 0.37-0.507 0.597-0.401 0.253-0.842 0.432-1.305 0.531l-0.094 0.057-0.103 0.047c-0.132 0.154-0.251 0.319-0.357 0.493-0.113 0.18-0.507 0.521-0.788 0.322l-0.056 0.502v0.208c-0.063 0.082-0.142 0.148-0.233 0.196s-0.19 0.074-0.293 0.079c-0.436 0.052-0.865 0.157-1.276 0.313-0.478 0.171-1.951 0.739-2.271 0.825-0.689 0.136-1.384 0.234-2.083 0.294-0.525 0.047-2.383 0.427-3.003 0.502l-0.563-0.123-0.357-0.085c-0.385 0-1.089 0.076-1.548 0.076h-0.422c-0.422 0-0.854 0-1.276 0-0.075 0-0.187 0-0.234 0-0.253-0.161-0.385-0.483-0.863-0.209-0.159 0.085-0.535-0.19-0.892-0.209-0.619 0-1.126-0.493-1.811-0.417 0 0-0.075-0.114-0.103-0.171-0.104-0.131-0.187-0.278-0.244-0.436l-0.075-0.341c-0.282 0.076-0.451 0-0.375-0.095l-0.075-0.114c-0.113-0.171-0.253-0.332-0.385-0.502l-0.3-0.663v-0.18c-0.075-0.19-0.244-0.616-0.394-0.948l-0.122-0.303c-0.137-0.265-0.253-0.541-0.347-0.825-0.117-0.522-0.202-1.050-0.253-1.583v-0.294c0.047-0.28 0.143-0.549 0.282-0.796 0.224-0.175 0.462-0.331 0.713-0.464 0.268-0.169 0.483-0.413 0.619-0.701l0.131-0.171c0.15-0.208 0.62-0.123 0.629-0.512v-0.199c0.212 0.083 0.441 0.112 0.667 0.085 0.291-0.114 0.574-0.25 0.844-0.408l0.432-0.152c0.281 0 0.516-0.18 0.516-0.313s0.15-0.54 0.338-0.54c0.188 0 0.703-0.047 0.638-0.114s-0.15-0.228-0.094-0.275h0.057c0.083-0.019 0.17-0.019 0.253 0 0.713 0.152 0.938-0.332 1.342-0.644s0.31-0.265 0.507 0.057l0.226 0.36c0.093-0.218 0.244-0.36 0.328-0.313s0.404-0 0.366-0.066l-0.057-0.047-0.31-0.303 1.623-0.73 0.554-0.237c0.171-0.093 0.36-0.145 0.554-0.152 0.422 0.173 0.883 0.226 1.333 0.152l0.263-0.085c0.191 0.045 0.39 0.045 0.582 0l0.056-0.057c0.075-0.066 0.132-0.208 0.188-0.208 0.585-0.062 1.161-0.189 1.717-0.379l0.525-0.114c0.62-0.066 1.483-0.19 1.924-0.265l0.347-0.123c0.291-0.114 0.422-0.237 0.732 0l0.206 0.142c0.118-0.073 0.251-0.118 0.389-0.133s0.277 0.002 0.409 0.048c0.131 0.104 0.45-0.246 0.516-0.351s0.601 0 0.882 0l0.113-0.256v-0.057c0.103-0.076-0.066-0.152-0.366-0.19-0.452-0.089-0.918-0.089-1.37 0l-0.272-0.18c-0.25-0.174-0.521-0.315-0.807-0.417l-0.253-0.076c-0.334-0.016-0.669 0.033-0.986 0.142-0.225 0.104-1.623-0.275-2.712-0.275s-4.129 0-4.354-0.095c-0.225-0.095-0.873 0.303-1.032 0.37s-1.070-0.161-1.521-0.152l-0.404 0.085-0.441 0.104c-0.57 0.050-1.137 0.132-1.698 0.246l-0.375-0.161-0.169-0.076c-0.131-0.171-0.272-0.085-0.309 0.209l-0.46-0.123-0.441-0.114c-0.596 0.097-1.198 0.144-1.802 0.142l-0.441 0.294-0.15 0.095c-0.58-0.119-1.173-0.161-1.764-0.123-0.582 0-2.046 0.455-2.074 0.389-0.039-0.053-0.097-0.089-0.161-0.101s-0.131 0-0.187 0.035c-0.141 0.095-0.638 0.265-0.938 0.455l-0.085-0.066c-0.403-0.294-0.77-0.104-1.154 0-0.279-0.078-0.574-0.078-0.854 0-0.404 0.085-1.811 0.313-2.215 0.398-0.62 0.115-1.256 0.115-1.877 0l-0.206 0.36c-0.084 0.152-0.469 0.218-0.732 0.256s-0.591 0-0.882 0c-0.116 0.003-0.227 0.043-0.319 0.114-0.125 0.134-0.283 0.232-0.458 0.284s-0.36 0.055-0.537 0.010l-0.441-0.076c-0.726 0.245-1.47 0.436-2.224 0.569-0.835 0.152-3.698 0.834-4.58 1.024l-0.807 0.152c-0.585 0.035-1.15 0.221-1.642 0.54-0.094 0.057-0.201 0.086-0.31 0.085-0.244-0.313-0.498-0.047-0.685 0-0.543 0.226-1.115 0.373-1.699 0.436h-0.479c-0.469 0.279-0.974 0.489-1.501 0.626-0.599 0.156-1.183 0.365-1.745 0.626-0.31 0.142-1.38 0.408-1.643 0.493l-4.504 1.545c-0.149 0.027-0.293 0.082-0.422 0.161l-0.31 0.294c-0.39 0.117-0.769 0.266-1.135 0.445-0.178 0.095-0.938 0.237-1.126 0.322l-0.141 0.123c-0.107 0.118-0.24 0.21-0.388 0.268s-0.308 0.080-0.466 0.064c-0.189 0.021-0.372 0.082-0.535 0.18-0.222 0.15-0.461 0.271-0.714 0.36l-1.042 0.19c-0.788 0.482-1.61 0.907-2.459 1.27-0.623 0.283-1.23 0.6-1.82 0.948-0.178 0.104-0.939 0.265-1.098 0.341-0.469 0.183-0.926 0.395-1.37 0.635l-0.328 0.199c-0.103 0.058-0.22 0.085-0.338 0.076l-0.356-0.076c-0.301 0.161-1.314 0.597-2.243 0.948l-0.938 0.152c0 0-0.057 0-0.094 0.057l-0.563 0.227c-0.578 0.193-1.142 0.424-1.689 0.692-0.282 0.161-1.68 0.398-2.252 0.569s-2.281 0.948-2.722 1.128c-0.441 0.18-2.243 0.626-3.012 0.806l-0.572 0.303-0.478 0.256c-0.49 0.042-0.972 0.147-1.436 0.313-0.244 0.104-1.53 0.398-2.196 0.559l-0.554 0.199c-0.507 0.18-1.042-0.066-1.53 0.284-0.309 0.218-0.938 0.152-1.389 0.237-0.938 0.171-1.877 0.36-2.815 0.55h-0.075c-0.584 0.096-1.173 0.16-1.764 0.19l-0.807 0.085c-0.526 0.057-1.033 0.142-1.549 0.209s-1.089-0.152-1.548 0.199c0 0-0.188 0-0.253 0-0.403 0.19-0.713-0.464-1.229-0.047l-0.206 0.18c-0.594-0.075-1.175-0.231-1.726-0.464l-0.422 0.19-0.385 0.18c-0.485-0.155-0.993-0.226-1.501-0.208l-0.385-0.227c-0.288-0.063-0.585-0.063-0.873 0h-0.291c-0.075-0.106-0.173-0.193-0.287-0.254s-0.241-0.094-0.37-0.096h-0.225c-0.169 0-0.357 0.208-0.516 0s-0.704-0.275-1.107-0.341c-0.596-0.143-1.182-0.323-1.755-0.54l-0.15-0.047c-0.141 0-0.235-0.161-0.188-0.246s0.131-0.332 0.103-0.341c-0.102-0.001-0.201 0.032-0.282 0.095-0.147 0.069-0.307 0.104-0.469 0.104s-0.322-0.036-0.469-0.104l-0.188-0.171-0.094-0.095c-0.047-0.142-0.15-0.227-0.225-0.19s-0.282-0.076-0.357-0.218c-0.075-0.142-0.385-0.55-0.413-0.464s-0.178 0.275-0.253 0.19c-0.232-0.167-0.484-0.304-0.751-0.408l-0.225-0.057c-0.554-0.161-0.657-0.284-0.938-0.948v-0.123c-0.031-0.034-0.069-0.059-0.113-0.072s-0.089-0.015-0.133-0.004c-0.044 0.011-0.085 0.033-0.117 0.065s-0.056 0.072-0.068 0.116l-0.244-0.152-0.084-0.057c-0.41 0.017-0.816 0.083-1.211 0.199l-0.469 0.171-0.938 0.332c-1.042 0.351-2.233 0.739-2.656 0.862s-1.952 0.569-2.459 0.682c-0.507 0.114-2.177 0.493-2.609 0.644s-1.821 0.294-2.018 0.389h-0.798c-0.648 0.133-1.699 0.322-2.327 0.427s-2.599 0.351-2.937 0.464h-0.61c-0.357 0-0.788 0.123-0.938 0.171s-1.783 0.256-3.125 0.464l-1.258-0.171h-0.357c-0.464 0.050-0.925 0.13-1.379 0.237h-0.357c-0.422 0-0.845 0-1.267 0h-0.385c-0.592-0.015-1.181-0.075-1.764-0.18l-0.582 0.142-0.45 0.104-1.53-0.379c-0.487-0.014-0.973-0.058-1.455-0.133l-0.291 0.341c-0.265 0.022-0.532 0.022-0.798 0-0.533-0.185-1.056-0.396-1.567-0.635l-0.235-0.076-0.357-0.114c0 0.256-0.188 0.427-0.328 0.389s-0.741-0.313-1.117-0.483l-0.113-0.237-0.253-0.502c-0.375 0.291-0.842 0.436-1.314 0.408l-0.206-0.398c-0.037-0.043-0.083-0.077-0.136-0.098s-0.109-0.030-0.165-0.025c-0.638 0.161-0.807-0.389-1.239-0.54-0.094 0-0.197-0.227-0.16-0.275s0.188-0.218-0.084-0.237c-0.128 0.010-0.257 0.010-0.385 0-0.141-0.047-0.263-0.171-0.404-0.199-0.319 0-0.338-0.237-0.188-0.351l0.357-0.265c-0.284-0.103-0.557-0.233-0.816-0.389-0.178-0.104-0.854-0.256-0.938-0.521l-0.122-0.237c-0.15-0.294 0.103-0.512 0.253-0.739 0.38 0.184 0.685 0.496 0.863 0.881l0.235 0.379-0.066-0.085zM47.314 19.186c-0.206-0.123-0.235-0.246-0.066-0.275 0.427-0.081 0.845-0.205 1.248-0.37l0.056-0.294c0.075-0.408 0.563-0.398 0.816-0.635 0.273-0.205 0.565-0.383 0.873-0.531 0.278-0.181 0.566-0.346 0.863-0.493 0.564-0.177 1.036-0.572 1.314-1.099 0.094-0.218 0.113-0.389 0.46-0.341s0.347-0.076 0.366-0.284c0-0.066 0.319-0.076 0.385-0.161s-0.066-0.341 0-0.351l0.572-0.171c0.319-0.427 0.694-0.948 0.835-1.062 0.604-0.449 1.23-0.867 1.877-1.251l0.469-0.569 0.357-0.427c0.582-0.332 1.013-0.72 0.938-0.863l0.057-0.047 0.094-0.076c0.302-0.166 0.557-0.408 0.741-0.701 0.235-0.332 0.938-1.45 1.042-1.697 0.217-0.482 0.377-0.988 0.478-1.507 0-0.332-1.004-0.948-1.135-0.948-0.259-0.087-0.539-0.087-0.797 0-0.197 0.095-1.117 0.256-1.633 0.398-0.89 0.236-1.766 0.517-2.628 0.844-0.413 0.199-2.017 1.194-2.712 1.687l-0.835 0.19c-0.047 0-0.047 0.123-0.103 0.161-0.244 0.199-0.694 0.36-0.723 0.569-0.066 0.474-0.648 0.218-0.807 0.483 0 0-0.188 0-0.197 0.076-0.206 0.569-0.891 0.806-1.258 1.251s-0.647 0.948-1.060 1.403c-0.365 0.378-0.681 0.801-0.938 1.261-0.225 0.408-0.563 0.758-0.779 1.185l-0.197 0.389c-0.262 0.285-0.486 0.604-0.666 0.948l0.056 0.057c0.357 0.303 0.282 0.445-0.206 0.531-0.075 0-0.113 0.303-0.094 0.464v0.123c0.027 0.29 0.027 0.582 0 0.872l-0.272 0.332-0.206 0.237c0.004 0.383-0.053 0.764-0.169 1.128-0.094 0.161 0.375 0.626 0.385 0.796s0.985-0.237 1.52-0.607l0.591-0.199c0.253-0.085 0.526-0.142 0.77-0.237l0.319-0.19zM163.968 16.437c0.404-0.114 0.563-0.256 0.338-0.313s-0.826-0.284-0.938-0.218-0.657 0.152-0.798 0.237c-0.141 0.085-0.807-0.095-1.135-0.047s-1.37 0.332-1.726 0.341c-0.357 0.009-1.154 0.531-1.37 0.474h-0.197c-0.131 0-0.225 0.218-0.366 0.265s-0.272-0.133-0.347-0.095l-0.31 0.142c-0.284 0.186-0.604 0.309-0.938 0.36-0.628 0.186-1.241 0.423-1.83 0.711l-0.525 0.133-0.507 0.133c-0.206 0.275-0.516 0.417-0.685 0.322h-0.113l-0.263 0.066c-0.253 0.142-0.77 0.455-1.145 0.701s-1.727 0.844-1.971 0.995l-0.254 0.095-0.234 0.104c-0.112 0.133-0.234 0.257-0.366 0.37 0 0.057-0.066 0.152 0 0.19l0.057 0.066c0.193 0.062 0.39 0.103 0.591 0.123 0.452 0.057 0.909 0.057 1.361 0l0.262-0.066 0.319-0.076c0.474-0.047 0.952-0.047 1.426 0l0.413-0.085 0.31-0.066c0.188 0.217 0.437 0.372 0.713 0.445l0.085-0.057 0.403-0.313 1.37-0.085 0.31-0.057c0.347-0.066 0.723-0.275 0.797 0.246 0 0 0.347 0.066 0.394 0l0.244-0.237c0.216-0.284 0.46-0.474 0.554-0.408s0.225 0.237 0.131 0.275c-0.094 0.038-0.141 0.095 0.3 0s1.323-0.711 1.351-0.54c0.028 0.171 0.291 0.417 0.498 0.237 0.296-0.285 0.61-0.55 0.938-0.796 0.15-0.066 0.619-0.209 0.582-0.303s0.554-0.559 0.882-0.796l0.15-0.322c0.085-0.18 0.179-0.445 0.338-0.493 0.338-0.085 0.385-0.208 0.441-0.474s0.431-0.512 0.46-0.768v-0.417z"></path>
</symbol>
<symbol id="icon-rectangle" viewBox="0 0 60 32">
<path fill="#e7cec0" style="fill: var(--color1, #e7cec0)" d="M7.909 10.719l38.637-10.353c5.69-1.525 11.539 1.852 13.064 7.542s-1.852 11.539-7.542 13.064l-38.637 10.353c-5.69 1.525-11.539-1.852-13.064-7.542s1.852-11.539 7.542-13.064z"></path>
</symbol>
<symbol id="icon-tiktok" viewBox="0 0 29 32">
<path fill="#fff" style="fill: var(--color2, #fff)" d="M23.868 6.727c-0.212-0.11-0.419-0.23-0.619-0.36-0.582-0.385-1.116-0.839-1.59-1.351-1.186-1.357-1.629-2.734-1.792-3.698h0.007c-0.136-0.8-0.080-1.318-0.071-1.318h-5.402v20.889c0 0.28 0 0.558-0.012 0.832 0 0.034-0.003 0.065-0.005 0.102 0 0.015 0 0.031-0.003 0.046 0 0.004 0 0.008 0 0.012-0.057 0.75-0.297 1.474-0.7 2.108s-0.955 1.161-1.608 1.532c-0.681 0.388-1.452 0.591-2.235 0.59-2.517 0-4.557-2.052-4.557-4.587s2.040-4.587 4.557-4.587c0.476-0 0.95 0.075 1.403 0.222l0.007-5.5c-1.375-0.178-2.772-0.068-4.103 0.321s-2.567 1.050-3.629 1.941c-0.931 0.809-1.714 1.774-2.313 2.853-0.228 0.393-1.088 1.973-1.193 4.537-0.066 1.455 0.372 2.963 0.58 3.586v0.013c0.131 0.367 0.639 1.619 1.467 2.675 0.667 0.847 1.456 1.591 2.34 2.208v-0.013l0.013 0.013c2.615 1.777 5.515 1.661 5.515 1.661 0.502-0.020 2.183 0 4.093-0.905 2.118-1.003 3.324-2.498 3.324-2.498 0.77-0.893 1.383-1.911 1.811-3.010 0.489-1.285 0.652-2.826 0.652-3.442v-11.082c0.066 0.039 0.938 0.617 0.938 0.617s1.257 0.806 3.22 1.331c1.408 0.374 3.304 0.452 3.304 0.452v-5.363c-0.664 0.072-2.014-0.138-3.395-0.826z"></path>
</symbol>
<symbol id="icon-watsapp1" viewBox="0 0 30 32">
<path fill="#fff" style="fill: var(--color2, #fff)" d="M0 30.503l2.187-8.13c-1.763-3.167-2.324-6.863-1.578-10.409s2.747-6.705 5.638-8.897 6.475-3.269 10.097-3.035c3.622 0.234 7.038 1.764 9.621 4.31s4.16 5.936 4.441 9.549c0.281 3.613-0.752 7.205-2.91 10.119s-5.296 4.953-8.838 5.743c-3.542 0.79-7.251 0.279-10.446-1.44l-8.213 2.192zM8.609 25.269l0.508 0.301c2.314 1.369 5.017 1.936 7.688 1.612s5.158-1.522 7.076-3.405 3.158-4.347 3.526-7.008c0.369-2.66-0.154-5.368-1.488-7.7s-3.402-4.159-5.884-5.195c-2.482-1.036-5.237-1.224-7.837-0.533s-4.898 2.22-6.536 4.351c-1.638 2.13-2.524 4.742-2.52 7.428-0.002 2.227 0.615 4.411 1.782 6.308l0.319 0.524-1.222 4.538 4.588-1.22z"></path>
</symbol>
<symbol id="icon-watsapp2" viewBox="0 0 36 32">
<path fill="#fff" style="fill: var(--color2, #fff)" d="M30.035 20.888c-0.695-0.559-1.508-0.953-2.378-1.151s-1.774-0.195-2.643 0.008c-1.306 0.541-2.149 2.587-2.993 3.61-0.178 0.245-0.439 0.417-0.735 0.484s-0.606 0.023-0.872-0.123c-4.78-1.869-8.787-5.297-11.369-9.726-0.22-0.276-0.325-0.627-0.291-0.979s0.203-0.676 0.472-0.906c0.941-0.93 1.632-2.082 2.009-3.349 0.084-1.398-0.237-2.79-0.924-4.011-0.531-1.711-1.542-3.235-2.913-4.392-0.707-0.317-1.491-0.424-2.257-0.306s-1.482 0.454-2.061 0.968c-1.005 0.866-1.803 1.946-2.335 3.161s-0.784 2.533-0.738 3.858c0.003 0.744 0.098 1.485 0.281 2.206 0.466 1.732 1.184 3.388 2.129 4.913 0.682 1.169 1.426 2.3 2.23 3.389 2.61 3.578 5.892 6.615 9.662 8.944 1.892 1.183 3.914 2.146 6.026 2.868 2.194 0.993 4.617 1.374 7.010 1.103 1.364-0.206 2.656-0.744 3.763-1.565s1.994-1.902 2.585-3.147c0.347-0.752 0.452-1.593 0.301-2.406-0.362-1.664-2.591-2.647-3.957-3.449z"></path>
</symbol>
<symbol id="icon-footer-bg" viewBox="0 0 87 32">
<path fill="#e7cec0" style="fill: var(--color1, #e7cec0)" d="M84.419 2.072v0c-0.025-0.001-0.045-0.002-0.061-0.002-0.301-0.064-0.62-0.041-0.937-0.019-0.375 0.027-0.75 0.053-1.095-0.063-0.097-0.036-0.192-0.073-0.285-0.111-0.361-0.144-0.704-0.281-1.093-0.257-0.242 0.234-0.495 0.165-0.743 0.098-0.174-0.047-0.345-0.093-0.507-0.034-0.096 0.027-0.191 0.089-0.286 0.15-0.172 0.111-0.343 0.221-0.522 0.126-0.072 0.008-0.143 0.029-0.208 0.064-0.007-0.002-0.013-0.004-0.019-0.006-0.043-0.016-0.071-0.026-0.133 0.159-0.128-0.123-0.363-0.074-0.561-0.033-0.097 0.020-0.184 0.038-0.245 0.033-0.124 0.035-0.254 0.037-0.379 0.007s-0.241-0.091-0.339-0.178c-0.061-0.040-0.114-0.089-0.164-0.136-0.139-0.131-0.253-0.238-0.47-0.035-0.189-0.199-0.947-0.183-1.136 0.044-0.061 0.177-0.067 0.217-0.070 0.238-0.002 0.009-0.002 0.015-0.007 0.028-0.004 0.009-0.009 0.021-0.017 0.040-0.049 0.107-0.189 0.276-0.328 0.262-0.218 0.135-0.464 0.212-0.716 0.223s-0.504-0.043-0.732-0.158c-0.568 0.199-1.244 0.366-1.795 0.034-0.147 0-0.186-0.069-0.289-0.255-0.029-0.053-0.064-0.115-0.108-0.188-0.093-0.234-0.198-0.165-0.304-0.097-0.063 0.041-0.125 0.082-0.185 0.057-0.334 0.018-0.668 0.003-1-0.046-0.167-0.163-0.224-0.182-0.342-0.221-0.052-0.017-0.114-0.037-0.203-0.075-0.304-0.057-0.61-0.048-0.912-0.039v0c-0.313 0.009-0.621 0.018-0.918-0.046-0.187-0.056-0.398-0.033-0.612-0.011-0.219 0.023-0.442 0.047-0.644-0.013-0.262-0.348-0.587-0.236-0.893-0.131-0.283 0.097-0.549 0.188-0.733-0.095-0.032-0.047-0.061-0.1-0.089-0.151-0.091-0.168-0.173-0.319-0.324-0.173-0.076 0.030-0.15-0.035-0.225-0.099-0.039-0.034-0.079-0.068-0.118-0.088-0.194-0.023-0.349 0.051-0.499 0.121-0.188 0.088-0.365 0.172-0.596 0.058-0.155 0.31-0.312 0.197-0.469 0.085v-0c-0.044-0.032-0.088-0.063-0.132-0.085-0.198-0.065-0.446-0.048-0.666-0.032l-0.001 0c-0.039 0.003-0.078 0.006-0.115 0.008-0.015 0.001-0.029 0.002-0.044 0.002-0.017 0.001-0.035 0.001-0.051 0.002-0.1-0.117-0.181-0.138-0.268-0.161-0.077-0.020-0.159-0.042-0.263-0.133-0.085-0.057-0.172-0.034-0.259-0.011-0.088 0.024-0.177 0.047-0.266-0.013-0.197-0.016-0.396 0.047-0.597 0.11l-0 0c-0.309 0.097-0.62 0.195-0.929 0.009-0.395-0.229-0.842-0.343-1.293-0.33 0.032 0.307-0.403 0.263-0.87 0.215-0.414-0.042-0.853-0.087-1.012 0.109-0.315 0.173-0.625 0.043-0.933-0.086-0.202-0.085-0.404-0.169-0.606-0.168-0.252-0.306-0.499-0.218-0.749-0.129-0.183 0.065-0.367 0.131-0.557 0.045-0.134-0.059-0.281-0.080-0.425-0.060s-0.281 0.079-0.397 0.172c-0.036 0.037-0.060 0.064-0.077 0.084l-0 0c-0.023 0.026-0.034 0.039-0.047 0.043-0.005 0.002-0.010 0.002-0.015 0.002-0.002 0-0.005-0-0.007-0-0.008-0.001-0.017-0.002-0.029-0.004-0.019-0.003-0.045-0.007-0.081-0.010-0.038 0.39-0.101 0.237-0.155 0.106-0.019-0.046-0.037-0.089-0.052-0.106-0.153 0.14-0.322 0.084-0.487 0.029-0.133-0.044-0.264-0.088-0.384-0.029-0.085-0.070-0.163-0.088-0.236-0.106-0.098-0.023-0.19-0.045-0.286-0.184-0.184 0.055-0.371-0.034-0.569-0.127-0.132-0.062-0.268-0.127-0.412-0.153-0.127 0.003-0.254 0.013-0.38 0.024-0.381 0.031-0.756 0.062-1.118-0.115-0.249-0.124-0.515-0.024-0.775 0.074-0.157 0.059-0.312 0.117-0.46 0.125-0.137 0.137-0.206 0.137-0.286 0.137-0.045-0-0.092-0-0.157 0.024-0.039-0.013-0.076 0.030-0.112 0.074-0.056 0.067-0.112 0.135-0.181-0.005-0.127-0.069-0.267-0.106-0.41-0.106s-0.283 0.036-0.41 0.106c-0.149 0.193-0.303 0.117-0.456 0.042-0.116-0.057-0.231-0.114-0.343-0.053-0.193-0.384-0.363-0.191-0.538 0.007-0.097 0.109-0.195 0.22-0.299 0.236-0.534-0.125-1.111-0.215-1.649 0-0.139-0.044-0.297-0.022-0.447 0h-0c-0.085 0.012-0.168 0.024-0.244 0.024-0.131-0.001-0.197 0.093-0.271 0.199l-0 0c-0.044 0.063-0.091 0.13-0.157 0.183-0.184 0.175-0.439 0.105-0.699 0.033-0.249-0.069-0.502-0.138-0.7 0.006-0.098-0.070-0.175-0.003-0.254 0.064-0.085 0.073-0.172 0.147-0.288 0.051-0.119 0.044-0.197 0.066-0.257 0.082l-0 0c-0.131 0.037-0.176 0.049-0.371 0.212-0.284 0.342-0.82 0.134-1.158 0.003l-0.001-0-0.048-0.019c-0.021-0.008-0.040-0.015-0.059-0.022-0.165-0.234-0.275-0.236-0.362-0.238-0.048-0.001-0.088-0.002-0.127-0.040-0.058-0.024-0.090-0.086-0.133-0.17-0.046-0.090-0.104-0.203-0.22-0.321-0.076-0.017-0.147-0.102-0.22-0.19-0.109-0.131-0.224-0.27-0.374-0.207-0.182-0.136-0.324-0.055-0.459 0.022-0.078 0.044-0.153 0.087-0.232 0.086-0.26 0.3-0.623 0.183-0.941 0.081l-0-0c-0.103-0.033-0.202-0.065-0.291-0.081-0.27-0.061-0.541-0.036-0.813-0.011h-0c-0.233 0.021-0.466 0.043-0.702 0.011-0.243 0.165-0.487 0.11-0.732 0.055-0.111-0.025-0.223-0.050-0.334-0.055-0.051 0.008-0.116 0.004-0.183 0h-0c-0.182-0.011-0.382-0.023-0.374 0.199-0.312 0.145-0.668 0.1-0.997 0.057l-0.003-0c-0.029-0.004-0.058-0.007-0.086-0.011-0.024-0.003-0.047-0.006-0.071-0.008-0.015 0.113-0.008 0.226-0.002 0.319v0c0.006 0.099 0.011 0.176-0.013 0.207-0.176-0.092-0.348 0.012-0.523 0.118-0.168 0.102-0.338 0.205-0.515 0.133-0.098 0.022-0.197-0.018-0.296-0.059-0.156-0.064-0.311-0.128-0.462 0.059-0.26 0.043-0.52 0.011-0.781-0.021-0.319-0.039-0.639-0.078-0.959 0.021-0.193 0.021-0.383 0.062-0.568 0.121-0.087 0.038-0.164 0.093-0.238 0.147-0.183 0.132-0.35 0.252-0.599 0.069-0.168 0.043-0.334 0.009-0.5-0.024l-0-0c-0.15-0.030-0.299-0.061-0.447-0.033-0.208 0-0.264 0.050-0.316 0.098-0.043 0.039-0.083 0.076-0.203 0.081-0.105 0.151-0.27 0.091-0.431 0.032-0.128-0.047-0.254-0.093-0.347-0.032-0.191-0.216-0.384-0.128-0.576-0.040-0.162 0.074-0.325 0.148-0.486 0.040-0.026-0.011-0.051-0.020-0.073-0.029l-0.026-0.010c-0.014-0.005-0.027-0.010-0.040-0.015l-0.002-0.001c-0.177-0.067-0.225-0.086-0.412-0.281-0.17 0.121-0.392 0.001-0.608-0.116-0.048-0.026-0.095-0.052-0.142-0.074-0.029-0.015-0.059-0.028-0.087-0.040-0.153-0.11-0.291-0.090-0.429-0.070-0.136 0.020-0.273 0.039-0.425-0.067-0.085 0.029-0.148-0.018-0.208-0.061-0.083-0.061-0.159-0.117-0.277 0.048-0.139-0.017-0.199 0.081-0.315 0.268l-0.023 0.036c-0.104 0.342-0.161 0.28-0.258 0.173-0.028-0.031-0.059-0.066-0.096-0.095-0.098 0.049-0.197 0.023-0.296-0.003-0.103-0.027-0.205-0.054-0.308 0.003-0.108-0.109-0.215-0.044-0.323 0.022-0.12 0.073-0.239 0.146-0.359-0.022-0.146 0.112-0.353 0.065-0.53 0.024-0.086-0.020-0.166-0.038-0.228-0.036-0.189-0.103-0.309-0.040-0.507 0.266-0.051 0.029-0.096 0.063-0.137 0.095l-0 0c-0.149 0.113-0.256 0.195-0.451-0.095-0.448-0.24-0.914-0.439-1.393-0.596-0.187 0.063-0.374 0.024-0.561-0.016-0.212-0.045-0.425-0.090-0.637 0.016-0.153 0.046-0.289-0.026-0.423-0.096-0.17-0.089-0.336-0.176-0.523-0.017-0.125-0.016-0.25-0.004-0.375 0.007-0.153 0.014-0.307 0.029-0.46-0.007-0.067 0.012-0.134 0.034-0.2 0.056-0.2 0.065-0.4 0.13-0.599-0.056-0.043 0-0.093 0.007-0.145 0.015l-0 0h-0.001c-0.164 0.024-0.357 0.052-0.473-0.12-0.424-0.455-0.695-0.505-1.174-0.572-0.072-0.008-0.145-0.035-0.218-0.061-0.167-0.061-0.334-0.121-0.498 0.035-0.137 0.16-0.275 0.041-0.412-0.078l-0-0c-0.052-0.045-0.104-0.090-0.156-0.12-0.462-0.167-1.017-0.066-1.293 0.342-0.345 0.49-0.811 0.474-1.366 0.454l-0.036-0.001c-0.165-0.121-0.31-0.049-0.457 0.024-0.094 0.047-0.189 0.094-0.291 0.091-0.061-0.211-0.167-0.103-0.22 0-0.080 0.014-0.089 0.029-0.122 0.090-0.011 0.019-0.024 0.043-0.043 0.073-0.422 0.33-0.856 0.397-1.225-0.155 0 0.008-0.066 0.362-0.151 0.727h-0.387v43.394h86.617v-42.444h-0.123c-0.108-0.363-0.265-0.723-0.362-0.945-0.052-0.121-0.087-0.201-0.087-0.219-0.043 0.449-1.261 0.402-1.626 0.388z"></path>
</symbol>
</defs>
</svg>
